Recursive Mono-Casual Medium Italic.ufo
<glyph name="percent" format="2">
  <advance width="600.0"/>
  <unicode hex="0025"/>
  <outline>
    <contour>
      <point x="281.0377358490566" y="710.0" type="curve" smooth="yes"/>
      <point x="187.03773584905662" y="710.0"/>
      <point x="105.47641509433961" y="633.0707547169811"/>
      <point x="84.08962264150944" y="529.561320754717" type="curve" smooth="yes"/>
      <point x="82.65094339622642" y="523.561320754717" type="line" smooth="yes"/>
      <point x="61.58018867924528" y="417.75471698113205"/>
      <point x="103.14150943396226" y="356.0"/>
      <point x="195.58018867924528" y="356.0" type="curve" smooth="yes"/>
      <point x="288.08962264150944" y="356.0"/>
      <point x="371.14150943396226" y="416.9481132075472"/>
      <point x="393.7735849056604" y="531.0518867924528" type="curve" smooth="yes"/>
      <point x="395.2122641509434" y="537.0518867924527" type="line" smooth="yes"/>
      <point x="416.16037735849056" y="640.1226415094338"/>
      <point x="374.9669811320755" y="710.0"/>
    </contour>
    <contour>
      <point x="155.3490566037736" y="520.8066037735848" type="curve" smooth="yes"/>
      <point x="156.78773584905662" y="525.6839622641509" type="line" smooth="yes"/>
      <point x="173.41981132075472" y="592.0896226415093"/>
      <point x="220.63207547169813" y="636.4245283018867"/>
      <point x="271.9150943396226" y="636.4245283018867" type="curve" smooth="yes"/>
      <point x="285.42452830188677" y="636.4245283018867"/>
      <point x="295.0566037735849" y="634.9858490566038"/>
      <point x="303.12735849056605" y="632.1084905660376" type="curve" smooth="yes"/>
      <point x="319.2877358490567" y="610.0377358490566"/>
      <point x="319.1650943396226" y="578.7028301886792"/>
      <point x="311.09433962264154" y="547.4198113207547" type="curve" smooth="yes"/>
      <point x="310.0943396226415" y="542.5424528301886" type="line" smooth="yes"/>
      <point x="294.4622641509434" y="479.57547169811323"/>
      <point x="255.25000000000006" y="443.9245283018868"/>
      <point x="195.89622641509436" y="443.9245283018868" type="curve" smooth="yes"/>
      <point x="187.70283018867926" y="443.9245283018868"/>
      <point x="173.0" y="444.9245283018868"/>
      <point x="158.92924528301887" y="451.99528301886795" type="curve" smooth="yes"/>
      <point x="147.71698113207546" y="470.5047169811321"/>
      <point x="149.5943396226415" y="497.47169811320754"/>
    </contour>
    <contour>
      <point x="442.4905660377359" y="344.0" type="curve" smooth="yes"/>
      <point x="348.4905660377359" y="344.0"/>
      <point x="268.0518867924529" y="268.75471698113205"/>
      <point x="246.66509433962264" y="163.56132075471697" type="curve" smooth="yes"/>
      <point x="245.66509433962267" y="157.56132075471697" type="line" smooth="yes"/>
      <point x="224.7169811320755" y="53.43867924528302"/>
      <point x="267.96226415094344" y="-10.0"/>
      <point x="362.0849056603774" y="-10.0" type="curve" smooth="yes"/>
      <point x="459.0849056603774" y="-10.0"/>
      <point x="534.2783018867924" y="56.56132075471698"/>
      <point x="556.3490566037736" y="165.05188679245285" type="curve" smooth="yes"/>
      <point x="557.7877358490566" y="171.05188679245285" type="line" smooth="yes"/>
      <point x="578.0518867924529" y="269.6320754716981"/>
      <point x="537.5424528301887" y="344.0"/>
    </contour>
    <contour>
      <point x="318.48584905660374" y="153.12264150943398" type="curve" smooth="yes"/>
      <point x="319.92452830188677" y="158.0" type="line" smooth="yes"/>
      <point x="338.24056603773585" y="231.14150943396226"/>
      <point x="385.45283018867923" y="270.98584905660374"/>
      <point x="434.4905660377358" y="270.98584905660374" type="curve" smooth="yes"/>
      <point x="448.0" y="270.98584905660374"/>
      <point x="457.63207547169804" y="269.54716981132077"/>
      <point x="465.70283018867923" y="266.6698113207547" type="curve" smooth="yes"/>
      <point x="482.4245283018868" y="245.1603773584906"/>
      <point x="482.8632075471698" y="215.50943396226415"/>
      <point x="475.23113207547175" y="184.22641509433964" type="curve" smooth="yes"/>
      <point x="473.79245283018867" y="179.3490566037736" type="line" smooth="yes"/>
      <point x="458.16037735849056" y="116.38207547169812"/>
      <point x="415.58018867924534" y="78.48584905660378"/>
      <point x="359.0330188679245" y="78.48584905660378" type="curve" smooth="yes"/>
      <point x="350.83962264150944" y="78.48584905660378"/>
      <point x="335.5754716981132" y="79.48584905660378"/>
      <point x="321.5047169811321" y="86.5566037735849" type="curve" smooth="yes"/>
      <point x="311.2924528301887" y="105.06603773584906"/>
      <point x="312.73113207547163" y="129.78773584905662"/>
    </contour>
    <component base="fraction"/>
  </outline>
</glyph>
<glyph name="quotesingle" format="2">
  <advance width="600.0"/>
  <unicode hex="0027"/>
  <outline>
    <contour>
      <point x="393.76886792452837" y="442.49056603773585" type="curve"/>
      <point x="459.7169811320755" y="655.8632075471698" type="line" smooth="yes"/>
      <point x="480.89150943396226" y="724.0188679245283"/>
      <point x="457.2264150943396" y="754.0"/>
      <point x="382.28301886792457" y="754.0" type="curve" smooth="yes"/>
      <point x="368.91509433962267" y="754.0"/>
      <point x="355.6698113207548" y="752.561320754717"/>
      <point x="343.4952830188679" y="750.0" type="curve"/>
      <point x="346.0566037735849" y="725.877358490566"/>
      <point x="344.495283018868" y="706.5283018867924"/>
      <point x="334.1792452830189" y="652.3349056603773" type="curve" smooth="yes"/>
      <point x="302.91509433962256" y="488.40094339622647" type="line" smooth="yes"/>
      <point x="296.2311320754717" y="452.6132075471698"/>
      <point x="310.5990566037736" y="439.12264150943395"/>
      <point x="356.70283018867923" y="439.12264150943395" type="curve" smooth="yes"/>
      <point x="370.9292452830189" y="439.12264150943395"/>
      <point x="383.4716981132076" y="440.2452830188679"/>
    </contour>
  </outline>
</glyph>
<glyph name="comma" format="2">
  <advance width="600.0"/>
  <unicode hex="002C"/>
  <outline>
    <contour>
      <point x="134.40094339622644" y="-195.61320754716982" type="curve" smooth="yes"/>
      <point x="151.57547169811323" y="-195.61320754716982"/>
      <point x="164.87264150943395" y="-191.92924528301887"/>
      <point x="175.8018867924528" y="-181.00000000000003" type="curve" smooth="yes"/>
      <point x="249.62735849056614" y="-113.31603773584906"/>
      <point x="324.0283018867924" y="7.646226415094332"/>
      <point x="349.41509433962267" y="118.31603773584908" type="curve" smooth="yes"/>
      <point x="359.46698113207555" y="164.64622641509433"/>
      <point x="332.55660377358487" y="186.06603773584905"/>
      <point x="270.31603773584914" y="186.06603773584905" type="curve" smooth="yes"/>
      <point x="250.14150943396228" y="186.06603773584905"/>
      <point x="234.33490566037736" y="183.62735849056605"/>
      <point x="213.1084905660377" y="177.62735849056602" type="curve"/>
      <point x="179.35377358490564" y="24.801886792452834"/>
      <point x="138.0047169811321" y="-70.43867924528303"/>
      <point x="61.79245283018869" y="-167.89622641509433" type="curve"/>
      <point x="78.96698113207547" y="-185.31603773584908"/>
      <point x="102.87735849056602" y="-195.61320754716982"/>
    </contour>
  </outline>
</glyph>
<glyph name="question" format="2">
  <advance width="600.0"/>
  <unicode hex="003F"/>
  <outline>
    <contour>
      <point x="281.5943396226415" y="-1.9292452830188673" type="curve"/>
      <point x="291.9622641509434" y="23.12264150943396" type="line" smooth="yes"/>
      <point x="323.311320754717" y="97.89150943396226"/>
      <point x="288.27830188679246" y="156.99528301886792"/>
      <point x="209.99999999999997" y="156.99528301886792" type="curve" smooth="yes"/>
      <point x="185.14150943396226" y="156.99528301886792"/>
      <point x="167.8443396226415" y="154.99528301886792"/>
      <point x="148.4245283018868" y="150.99528301886792" type="curve"/>
      <point x="140.37264150943395" y="124.9622641509434" type="line" smooth="yes"/>
      <point x="114.51415094339623" y="37.92924528301887"/>
      <point x="144.44339622641508" y="-8.367924528301886"/>
      <point x="209.03773584905656" y="-8.367924528301886" type="curve" smooth="yes"/>
      <point x="234.26415094339623" y="-8.367924528301886"/>
      <point x="261.2971698113207" y="-6.367924528301886"/>
    </contour>
    <contour>
      <point x="395.4056603773585" y="720.0" type="curve" smooth="yes"/>
      <point x="305.49528301886795" y="720.0"/>
      <point x="239.91509433962264" y="699.3679245283018"/>
      <point x="198.9150943396226" y="664.0518867924528" type="curve" smooth="yes"/>
      <point x="163.59905660377356" y="633.8584905660377"/>
      <point x="148.08962264150944" y="602.9811320754717"/>
      <point x="141.6509433962264" y="573.0330188679245" type="curve" smooth="yes"/>
      <point x="135.9669811320755" y="547.2971698113207"/>
      <point x="138.72169811320754" y="528.2452830188679"/>
      <point x="154.61792452830187" y="514.1415094339623" type="curve"/>
      <point x="160.61792452830187" y="514.1415094339623" type="line"/>
      <point x="207.3867924528302" y="579.7594339622642"/>
      <point x="277.52830188679246" y="616.9905660377359"/>
      <point x="366.4952830188679" y="616.9905660377359" type="curve" smooth="yes"/>
      <point x="413.6367924528302" y="616.9905660377359"/>
      <point x="447.5141509433962" y="612.2358490566038"/>
      <point x="466.58490566037733" y="601.5330188679245" type="curve"/>
      <point x="474.35849056603774" y="586.7594339622643"/>
      <point x="474.23584905660374" y="568.7924528301886"/>
      <point x="469.60377358490564" y="550.7028301886792" type="curve" smooth="yes"/>
      <point x="457.28773584905656" y="504.683962264151"/>
      <point x="430.02358490566036" y="471.5424528301887"/>
      <point x="366.81132075471703" y="433.4009433962264" type="curve" smooth="yes"/>
      <point x="340.24999999999994" y="417.40094339622635" type="line" smooth="yes"/>
      <point x="261.5141509433962" y="370.0330188679245"/>
      <point x="232.61792452830187" y="342.45283018867923"/>
      <point x="219.10849056603774" y="300.6981132075471" type="curve" smooth="yes"/>
      <point x="217.66981132075472" y="296.25943396226415" type="line" smooth="yes"/>
      <point x="208.54716981132074" y="264.47169811320754"/>
      <point x="230.33490566037736" y="245.41981132075472"/>
      <point x="295.4009433962264" y="245.41981132075472" type="curve" smooth="yes"/>
      <point x="302.52358490566036" y="245.41981132075472" type="line"/>
      <point x="303.9622641509434" y="252.6132075471698" type="line" smooth="yes"/>
      <point x="311.4009433962264" y="284.87735849056605"/>
      <point x="330.0330188679245" y="308.0707547169811"/>
      <point x="390.4575471698113" y="343.6698113207547" type="curve" smooth="yes"/>
      <point x="420.50943396226415" y="360.79245283018867" type="line" smooth="yes"/>
      <point x="510.36792452830196" y="412.10849056603774"/>
      <point x="550.0518867924528" y="452.5471698113207"/>
      <point x="571.1745283018868" y="529.1603773584906" type="curve" smooth="yes"/>
      <point x="573.7358490566038" y="538.4056603773583" type="line" smooth="yes"/>
      <point x="597.7358490566038" y="624.6509433962265"/>
      <point x="548.877358490566" y="720.0"/>
    </contour>
  </outline>
</glyph>
<glyph name="G" format="2">
  <advance width="600.0"/>
  <unicode hex="0047"/>
  <anchor x="424.8702849221812" y="711.0" name="top"/>
  <anchor x="246.8206850542811" y="-1.0" name="bottom"/>
  <outline>
    <contour>
      <point x="321.38207547169816" y="329.99528301886795" type="line"/>
      <point x="317.25943396226415" y="323.188679245283"/>
      <point x="314.7271802459033" y="317.36308147541985"/>
      <point x="312.57547169811323" y="307.2594339622642" type="curve" smooth="yes"/>
      <point x="304.00115925286275" y="267.7369016833566"/>
      <point x="320.36931187570144" y="236.52830188679243"/>
      <point x="403.53301886792457" y="236.52830188679243" type="curve"/>
      <point x="560.5613207547169" y="236.52830188679243" type="line"/>
      <point x="565.2452830188679" y="255.26415094339623" type="line" smooth="yes"/>
      <point x="578.9744500577584" y="310.1808190990024"/>
      <point x="570.1037735849056" y="329.99528301886795"/>
      <point x="532.1415094339623" y="329.99528301886795" type="curve" smooth="yes"/>
    </contour>
    <contour>
      <point x="445.54716981132077" y="720.0" type="curve"/>
      <point x="284.7735849056604" y="720.0"/>
      <point x="142.5705461887844" y="588.3623734344392"/>
      <point x="76.87735849056604" y="331.7311320754717" type="curve"/>
      <point x="71.87735849056602" y="312.16981132075466" type="line"/>
      <point x="23.75471698113207" y="119.87264150943395"/>
      <point x="95.12264150943398" y="-20.0"/>
      <point x="278.69811320754724" y="-20.0" type="curve" smooth="yes"/>
      <point x="341.7169811320755" y="-20.0"/>
      <point x="399.2264150943397" y="-0.05188679245283012"/>
      <point x="441.61320754716985" y="38.40566037735849" type="curve" smooth="yes"/>
      <point x="477.4198113207548" y="70.28301886792454"/>
      <point x="497.9292452830189" y="108.66981132075472"/>
      <point x="508.68396226415086" y="154.19811320754715" type="curve" smooth="yes"/>
      <point x="515.4905660377358" y="184.0566037735849"/>
      <point x="512.6839622641509" y="216.03773584905662"/>
      <point x="501.754716981132" y="231.52830188679246" type="curve"/>
      <point x="517.438679245283" y="262.96698113207543" type="line"/>
      <point x="445.74056603773585" y="262.96698113207543" type="line"/>
      <point x="447.30188679245276" y="243.2122641509434"/>
      <point x="443.8632075471698" y="221.82547169811323"/>
      <point x="438.10849056603774" y="199.92924528301884" type="curve" smooth="yes"/>
      <point x="416.9669811320755" y="127.55660377358492"/>
      <point x="357.99999999999994" y="82.44811320754718"/>
      <point x="282.2594339622642" y="82.44811320754718" type="curve" smooth="yes"/>
      <point x="216.64150943396223" y="82.44811320754718"/>
      <point x="174.1132075471698" y="106.99528301886792"/>
      <point x="159.44811320754712" y="161.08962264150946" type="curve" smooth="yes"/>
      <point x="156.71226415094338" y="193.4575471698113"/>
      <point x="160.46698113207543" y="239.4905660377358"/>
      <point x="170.02830188679243" y="278.54245283018867" type="curve"/>
      <point x="174.58962264150944" y="297.3490566037736" type="line"/>
      <point x="226.44976303225565" y="509.8097594524774"/>
      <point x="331.4198113207547" y="622.6037735849059"/>
      <point x="445.2830188679246" y="622.6037735849059" type="curve"/>
      <point x="485.688679245283" y="622.6037735849059"/>
      <point x="508.3396226415094" y="611.5330188679245"/>
      <point x="524.5330188679247" y="585.6367924528302" type="curve"/>
      <point x="530.7216981132074" y="637.811320754717" type="line"/>
      <point x="513.2358490566038" y="592.0896226415095"/>
      <point x="487.77830188679246" y="559.4575471698114"/>
      <point x="474.51415094339626" y="511.03301886792445" type="curve"/>
      <point x="464.39150943396226" y="471.6132075471698"/>
      <point x="480.372641509434" y="446.4905660377358"/>
      <point x="526.5801886792452" y="446.4905660377358" type="curve"/>
      <point x="541.316037735849" y="446.4905660377358"/>
      <point x="554.2971698113207" y="449.17452830188677"/>
      <point x="566.7169811320756" y="454.54245283018867" type="curve"/>
      <point x="571.3490566037736" y="498.43867924528297"/>
      <point x="581.4905660377361" y="520.6320754716982"/>
      <point x="591.8066037735852" y="565.7028301886793" type="curve"/>
      <point x="602.0000000000001" y="606.3349056603773"/>
      <point x="594.0707547169812" y="648.8962264150945"/>
      <point x="565.8254716981131" y="677.1415094339623" type="curve" smooth="yes"/>
      <point x="540.2641509433961" y="702.7028301886792"/>
      <point x="503.70283018867923" y="720.0"/>
    </contour>
  </outline>
</glyph>
<glyph name="L" format="2">
  <advance width="600.0"/>
  <unicode hex="004C"/>
  <anchor x="248.01583164662074" y="711.0" name="top"/>
  <anchor x="240.9610543460797" y="-1.0" name="bottom"/>
  <anchor x="439.91788421593964" y="402.80660377358487" name="dot"/>
  <anchor x="509.99528301886795" y="594.3867924528302" name="caronslovak"/>
  <anchor x="163.45283018867926" y="355.7169811320755" name="slash"/>
  <outline>
    <contour>
      <point x="158.6933962264151" y="0.0" type="curve" smooth="yes"/>
      <point x="442.0000000000001" y="0.0" type="line"/>
      <point x="464.53117494716133" y="49.90101484905708"/>
      <point x="462.6650943396226" y="102.44811320754717"/>
      <point x="414.03773584905656" y="102.44811320754717" type="curve" smooth="yes"/>
      <point x="152.32547169811323" y="102.44811320754717" type="line"/>
      <point x="164.37735849056602" y="257.57547169811323"/>
      <point x="256.698203854717" y="413.49366377945523"/>
      <point x="287.4150943396226" y="583.7924528301887" type="curve" smooth="yes"/>
      <point x="302.3205610329599" y="662.5627134622259"/>
      <point x="293.31852725367503" y="707.561320754717"/>
      <point x="234.80660377358492" y="707.561320754717" type="curve"/>
      <point x="219.3691037735849" y="707.561320754717"/>
      <point x="204.80813172907875" y="706.0101558824825"/>
      <point x="187.42452830188674" y="700.438679245283" type="curve"/>
      <point x="190.79245283018864" y="667.122641509434"/>
      <point x="189.7216981132075" y="628.8773584905662"/>
      <point x="181.7216981132075" y="589.1933962264151" type="curve"/>
      <point x="150.57618822932548" y="436.168454893076"/>
      <point x="82.68396226415094" y="309.5754716981132"/>
      <point x="53.07075471698113" y="155.16981132075472" type="curve" smooth="yes"/>
      <point x="36.89622641509433" y="72.75000000000001"/>
      <point x="82.9433962264151" y="0.0"/>
    </contour>
    <contour>
      <point x="434.33962264150944" y="208.57547169811318" type="curve"/>
      <point x="421.3207547169812" y="100.91037735849059"/>
      <point x="374.4952830188679" y="42.084905660377366"/>
      <point x="362.688679245283" y="-2.8773584905660377" type="curve"/>
      <point x="356.688679245283" y="-24.80660377358491"/>
      <point x="367.5660377358491" y="-35.9811320754717"/>
      <point x="432.929245283019" y="-35.9811320754717" type="curve"/>
      <point x="475.4198113207547" y="18.825471698113205"/>
      <point x="505.24528301886807" y="78.16037735849056"/>
      <point x="523.0518867924528" y="147.3867924528302" type="curve"/>
      <point x="531.4198113207548" y="181.10377358490564"/>
      <point x="519.1037735849058" y="211.94339622641508"/>
      <point x="471.8443396226416" y="211.94339622641508" type="curve" smooth="yes"/>
      <point x="457.61792452830196" y="211.94339622641508"/>
      <point x="444.6367924528302" y="210.82075471698113"/>
    </contour>
  </outline>
</glyph>
<glyph name="M" format="2">
  <advance width="600.0"/>
  <unicode hex="004D"/>
  <anchor x="243.92924528301884" y="0.0" name="bottom"/>
  <outline>
    <contour>
      <point x="123.9056603773585" y="0.0" type="curve"/>
      <point x="121.22169811320757" y="70.33490566037736"/>
      <point x="129.90566037735854" y="130.12264150943395"/>
      <point x="145.9056603773585" y="198.24528301886787" type="curve"/>
      <point x="172.8537735849057" y="313.1603773584906"/>
      <point x="216.17452830188677" y="425.76415094339626"/>
      <point x="230.26415094339623" y="568.1886792452831" type="curve"/>
      <point x="204.2830188679245" y="528.9433962264151" type="line"/>
      <point x="251.92924528301887" y="536.433962264151" type="line"/>
      <point x="234.0188679245283" y="569.1886792452831" type="line"/>
      <point x="224.0849056603774" y="386.32075471698107"/>
      <point x="242.6462264150944" y="270.0330188679245"/>
      <point x="275.4198113207548" y="228.0660377358491" type="curve" smooth="yes"/>
      <point x="278.85849056603774" y="223.62735849056608"/>
      <point x="283.29716981132077" y="221.06603773584908"/>
      <point x="289.73584905660385" y="221.06603773584908" type="curve" smooth="yes"/>
      <point x="292.73584905660374" y="221.06603773584908"/>
      <point x="295.7358490566038" y="221.62735849056605"/>
      <point x="298.17452830188677" y="222.18867924528303" type="curve"/>
      <point x="366.65094339622635" y="274.10377358490564"/>
      <point x="458.35849056603774" y="404.6745283018869"/>
      <point x="530.9198113207547" y="565.5047169811322" type="curve"/>
      <point x="491.377358490566" y="538.1179245283018" type="line"/>
      <point x="543.2877358490566" y="528.382075471698" type="line"/>
      <point x="528.6037735849056" y="558.1698113207548" type="line"/>
      <point x="496.82333057105615" y="420.22199515515183"/>
      <point x="447.8327133325132" y="322.3966695155391"/>
      <point x="421.90094339622647" y="244.6179245283019" type="curve"/>
      <point x="401.4622641509434" y="183.59905660377362"/>
      <point x="389.7075471698113" y="136.63207547169813"/>
      <point x="385.2688679245283" y="91.00000000000001" type="curve" smooth="yes"/>
      <point x="378.8958833814151" y="19.349657180979246"/>
      <point x="403.32672955972964" y="-6.683962264150944"/>
      <point x="448.7547169811321" y="-6.683962264150944" type="curve"/>
      <point x="463.1745283018869" y="-6.683962264150944"/>
      <point x="477.9103773584906" y="-3.6839622641509435"/>
      <point x="488.27830188679246" y="0.0" type="curve"/>
      <point x="482.5943396226415" y="32.193396226415096"/>
      <point x="483.0330188679245" y="73.43867924528301"/>
      <point x="489.5943396226416" y="110.12264150943395" type="curve"/>
      <point x="518.8396226415093" y="276.10377358490564"/>
      <point x="587.8915094339623" y="407.0330188679245"/>
      <point x="621.4198113207547" y="568.0188679245284" type="curve" smooth="yes"/>
      <point x="638.1226415094341" y="648.3018867924528"/>
      <point x="637.6132075471697" y="707.561320754717"/>
      <point x="561.1603773584906" y="707.561320754717" type="curve" smooth="yes"/>
      <point x="547.2311320754717" y="707.561320754717"/>
      <point x="529.6179245283018" y="704.683962264151"/>
      <point x="507.1981132075472" y="700.0" type="curve"/>
      <point x="480.9289984239429" y="558.5808243991434"/>
      <point x="382.45260024379064" y="407.03701817906887"/>
      <point x="294.8915094339623" y="314.63679245283015" type="curve"/>
      <point x="339.94339622641513" y="335.75943396226415" type="line"/>
      <point x="286.9103773584905" y="343.0047169811321" type="line"/>
      <point x="320.0849056603773" y="309.63679245283015" type="line"/>
      <point x="290.36320754716985" y="409.5330188679245"/>
      <point x="292.311320754717" y="506.7500000000001"/>
      <point x="308.45283018867923" y="623.8443396226417" type="curve" smooth="yes"/>
      <point x="316.01415094339626" y="680.509433962264"/>
      <point x="301.08490566037733" y="707.561320754717"/>
      <point x="226.3867924528302" y="707.561320754717" type="curve" smooth="yes"/>
      <point x="208.3867924528302" y="707.561320754717"/>
      <point x="190.6509433962264" y="705.1226415094341"/>
      <point x="167.98584905660374" y="700.0" type="curve"/>
      <point x="170.91509433962258" y="667.2452830188679"/>
      <point x="168.59905660377356" y="629.0"/>
      <point x="160.72169811320754" y="589.5613207547169" type="curve"/>
      <point x="126.33490566037736" y="416.2641509433962"/>
      <point x="50.72169811320755" y="285.16037735849056"/>
      <point x="26.896226415094343" y="126.29716981132076" type="curve" smooth="yes"/>
      <point x="11.580188679245282" y="27.613207547169814"/>
      <point x="43.22641509433963" y="-6.683962264150944"/>
      <point x="84.25943396226415" y="-6.683962264150944" type="curve"/>
      <point x="99.55660377358491" y="-6.683962264150944"/>
      <point x="112.29245283018868" y="-4.122641509433962"/>
    </contour>
  </outline>
</glyph>
<glyph name="N" format="2">
  <advance width="600.0"/>
  <unicode hex="004E"/>
  <anchor x="410.81725798762074" y="711.5613207547169" name="top"/>
  <anchor x="229.7499303373" y="-1.0" name="bottom"/>
  <outline>
    <contour>
      <point x="132.27358490566033" y="0.0" type="curve"/>
      <point x="128.5896226415094" y="37.70283018867924"/>
      <point x="130.02830188679246" y="77.0"/>
      <point x="139.58962264150944" y="130.31603773584908" type="curve"/>
      <point x="164.60849056603772" y="271.20283018867923"/>
      <point x="218.54245283018867" y="371.4292452830188"/>
      <point x="243.05188679245282" y="554.7169811320755" type="curve"/>
      <point x="217.38679245283018" y="528.1367924528302" type="line"/>
      <point x="272.2264150943397" y="528.1367924528302" type="line"/>
      <point x="246.61320754716985" y="554.7169811320755" type="line"/>
      <point x="244.34905660377362" y="274.1132075471698"/>
      <point x="296.8443396226416" y="101.98584905660377"/>
      <point x="357.74056603773585" y="24.193396226415096" type="curve" smooth="yes"/>
      <point x="376.4245283018868" y="0.7547169811320749"/>
      <point x="400.9669811320755" y="-7.806603773584905"/>
      <point x="441.19339622641513" y="-8.245283018867925" type="curve" smooth="yes"/>
      <point x="453.561320754717" y="-8.245283018867925"/>
      <point x="465.9292452830189" y="-5.1226415094339615"/>
      <point x="476.9811320754717" y="0.0" type="curve"/>
      <point x="473.4198113207547" y="33.31603773584906"/>
      <point x="477.7877358490566" y="71.56132075471697"/>
      <point x="485.3490566037736" y="114.80660377358491" type="curve"/>
      <point x="515.6650943396224" y="286.1933962264151"/>
      <point x="585.5235849056603" y="414.03301886792457"/>
      <point x="616.7358490566037" y="576.316037735849" type="curve"/>
      <point x="633.9999999999999" y="662.4575471698114"/>
      <point x="614.6509433962264" y="706.683962264151"/>
      <point x="560.2688679245283" y="706.683962264151" type="curve"/>
      <point x="549.4622641509434" y="706.683962264151"/>
      <point x="534.8490566037735" y="703.561320754717"/>
      <point x="523.7971698113205" y="700.0" type="curve"/>
      <point x="523.3584905660375" y="639.6509433962265"/>
      <point x="515.1132075471698" y="584.7924528301886"/>
      <point x="496.99056603773573" y="518.7405660377357" type="curve"/>
      <point x="456.7264150943397" y="372.56132075471703"/>
      <point x="410.33490566037733" y="250.00943396226418"/>
      <point x="405.84433962264154" y="109.84905660377356" type="curve"/>
      <point x="426.0707547169811" y="134.8490566037736" type="line"/>
      <point x="381.4245283018868" y="130.91981132075472" type="line"/>
      <point x="408.91509433962267" y="113.6745283018868" type="line"/>
      <point x="342.8396226415095" y="265.30660377358487"/>
      <point x="325.8726415094339" y="441.3962264150943"/>
      <point x="323.1698113207547" y="614.0896226415093" type="curve" smooth="yes"/>
      <point x="322.97641509433964" y="688.683962264151"/>
      <point x="296.0141509433963" y="706.683962264151"/>
      <point x="236.49056603773585" y="706.683962264151" type="curve" smooth="yes"/>
      <point x="217.31581834135946" y="706.683962264151"/>
      <point x="202.2641509433962" y="705.683962264151"/>
      <point x="175.9150943396226" y="700.0" type="curve"/>
      <point x="176.5990566037736" y="666.1226415094341"/>
      <point x="173.72169811320754" y="629.1226415094341"/>
      <point x="165.96698113207546" y="586.929245283019" type="curve"/>
      <point x="133.89622641509433" y="415.1415094339623"/>
      <point x="54.844339622641506" y="283.5283018867924"/>
      <point x="31.77358490566037" y="124.80660377358491" type="curve"/>
      <point x="17.45754716981132" y="29.806603773584907"/>
      <point x="46.47169811320756" y="-6.122641509433962"/>
      <point x="89.9433962264151" y="-6.122641509433962" type="curve"/>
      <point x="107.24056603773585" y="-6.122641509433962"/>
      <point x="119.85377358490565" y="-4.122641509433963"/>
    </contour>
  </outline>
</glyph>
<glyph name="Z" format="2">
  <advance width="600.0"/>
  <unicode hex="005A"/>
  <anchor x="410.7648306340509" y="711.0" name="top"/>
  <anchor x="246.2641509433962" y="0.0" name="bottom"/>
  <outline>
    <contour>
      <point x="479.43867924528297" y="0.0" type="line"/>
      <point x="482.1226415094339" y="5.806603773584905"/>
      <point x="484.8066037735848" y="13.174528301886792"/>
      <point x="486.9292452830188" y="21.7877358490566" type="curve" smooth="yes"/>
      <point x="498.1037735849056" y="68.48584905660378"/>
      <point x="490.73584905660374" y="105.25471698113208"/>
      <point x="439.28301886792445" y="105.25471698113208" type="curve"/>
      <point x="276.74056603773585" y="105.25471698113208" type="line"/>
      <point x="235.02358490566036" y="105.25471698113208"/>
      <point x="185.44811320754718" y="99.08018867924527"/>
      <point x="105.95754716981129" y="83.90566037735849" type="curve"/>
      <point x="136.85377358490564" y="65.78301886792453" type="line"/>
      <point x="119.48584905660377" y="122.83490566037736" type="line"/>
      <point x="104.97641509433961" y="81.27358490566039" type="line"/>
      <point x="219.47641509433961" y="149.80660377358492"/>
      <point x="316.67452830188677" y="227.7783018867925"/>
      <point x="393.7122641509434" y="300.85377358490564" type="curve" smooth="yes"/>
      <point x="523.2358490566037" y="413.8207547169811"/>
      <point x="613.7924528301886" y="526.1179245283018"/>
      <point x="627.7216981132076" y="586.3254716981132" type="curve"/>
      <point x="629.8443396226415" y="595.377358490566" type="line" smooth="yes"/>
      <point x="642.1415094339623" y="646.933962264151"/>
      <point x="639.8066037735849" y="700.0"/>
      <point x="577.4905660377359" y="700.0" type="curve"/>
      <point x="218.58018867924528" y="700.0" type="line"/>
      <point x="197.7924528301887" y="663.9858490566038"/>
      <point x="195.03773584905662" y="600.3584905660377"/>
      <point x="239.49056603773585" y="600.3584905660377" type="curve"/>
      <point x="427.26415094339626" y="600.3584905660377" type="line"/>
      <point x="480.15566037735846" y="600.3584905660377"/>
      <point x="509.94339622641513" y="603.4811320754717"/>
      <point x="547.7830188679245" y="616.2169811320755" type="curve"/>
      <point x="497.09905660377365" y="627.8301886792452" type="line"/>
      <point x="533.7641509433963" y="587.2877358490565" type="line"/>
      <point x="534.3962264150944" y="633.0943396226415" type="line"/>
      <point x="500.30660377358487" y="560.7216981132077"/>
      <point x="453.26886792452825" y="491.5424528301887"/>
      <point x="394.5990566037736" y="425.55660377358487" type="curve" smooth="yes"/>
      <point x="295.3867924528302" y="312.9056603773584"/>
      <point x="163.24528301886792" y="209.13207547169816"/>
      <point x="18.910377358490564" y="118.16509433962266" type="curve"/>
      <point x="15.787735849056602" y="105.35849056603774" type="line" smooth="yes"/>
      <point x="-3.9292452830188713" y="35.64622641509434"/>
      <point x="17.73584905660377" y="0.0"/>
      <point x="60.33018867924529" y="0.0" type="curve" smooth="yes"/>
    </contour>
    <contour>
      <point x="230.87264150943395" y="521.9339622641509" type="curve"/>
      <point x="255.67924528301887" y="620.4764150943395"/>
      <point x="301.0660377358491" y="676.4245283018868"/>
      <point x="312.872641509434" y="718.5801886792453" type="curve"/>
      <point x="319.433962264151" y="742.7547169811321"/>
      <point x="295.01415094339626" y="755.6132075471698"/>
      <point x="228.77358490566039" y="755.6132075471698" type="curve"/>
      <point x="189.16037735849056" y="703.2452830188679"/>
      <point x="157.6509433962264" y="646.1556603773585"/>
      <point x="140.8443396226415" y="579.1745283018868" type="curve"/>
      <point x="132.47641509433961" y="545.4575471698113"/>
      <point x="146.10849056603772" y="518.566037735849"/>
      <point x="193.3679245283019" y="518.566037735849" type="curve" smooth="yes"/>
      <point x="207.5943396226415" y="518.566037735849"/>
      <point x="220.5754716981132" y="519.688679245283"/>
    </contour>
  </outline>
</glyph>
<glyph name="grave" format="2">
  <advance width="600.0"/>
  <unicode hex="0060"/>
  <outline>
    <contour>
      <point x="389.87264150943395" y="749.4009433962265" type="curve"/>
      <point x="358.9811320754717" y="752.5943396226415"/>
      <point x="337.63207547169816" y="751.7877358490566"/>
      <point x="316.45754716981133" y="748.9811320754717" type="curve" smooth="yes"/>
      <point x="286.21226415094344" y="745.6132075471698"/>
      <point x="267.7735849056604" y="733.683962264151"/>
      <point x="262.84433962264154" y="705.0" type="curve" smooth="yes"/>
      <point x="252.54716981132077" y="634.7358490566038"/>
      <point x="282.16037735849056" y="518.806603773585"/>
      <point x="320.2122641509434" y="467.9811320754717" type="curve" smooth="yes"/>
      <point x="335.1933962264151" y="449.122641509434"/>
      <point x="348.87735849056605" y="440.3679245283019"/>
      <point x="375.0330188679245" y="440.3679245283019" type="curve" smooth="yes"/>
      <point x="397.20754716981133" y="440.3679245283019"/>
      <point x="412.9433962264151" y="446.7358490566038"/>
      <point x="430.75" y="459.22641509433964" type="curve"/>
      <point x="396.9952830188679" y="548.4905660377358"/>
      <point x="380.8207547169812" y="636.5943396226414"/>
    </contour>
  </outline>
</glyph>
<glyph name="g" format="2">
  <advance width="600.0"/>
  <unicode hex="0067"/>
  <outline>
    <contour>
      <point x="315.4245283018868" y="544.9811320754717" type="curve" smooth="yes"/>
      <point x="204.37264150943395" y="544.9811320754717"/>
      <point x="103.7924528301887" y="465.24528301886795"/>
      <point x="53.96698113207548" y="265.25943396226415" type="curve" smooth="yes"/>
      <point x="48.283018867924525" y="242.5235849056604" type="line" smooth="yes"/>
      <point x="21.96698113207547" y="137.5754716981132"/>
      <point x="60.89622641509433" y="24.49056603773585"/>
      <point x="169.35377358490567" y="24.49056603773585" type="curve" smooth="yes"/>
      <point x="243.70754716981128" y="24.49056603773585"/>
      <point x="329.70754716981133" y="85.50943396226417"/>
      <point x="384.2688679245283" y="170.9669811320755" type="curve"/>
      <point x="417.74056603773585" y="170.9669811320755" type="line"/>
      <point x="452.1084905660377" y="329.0330188679245" type="line"/>
      <point x="358.6839622641509" y="174.3254716981132"/>
      <point x="273.3867924528302" y="135.91981132075472"/>
      <point x="193.12264150943395" y="135.91981132075472" type="curve" smooth="yes"/>
      <point x="171.7688679245283" y="135.91981132075472"/>
      <point x="156.67924528301887" y="142.061320754717"/>
      <point x="144.97641509433964" y="152.7122641509434" type="curve" smooth="yes"/>
      <point x="143.58962264150944" y="183.04716981132074"/>
      <point x="148.15094339622638" y="212.11792452830187"/>
      <point x="158.7830188679245" y="251.20754716981133" type="curve" smooth="yes"/>
      <point x="163.34433962264148" y="267.8915094339623" type="line" smooth="yes"/>
      <point x="195.43396226415092" y="386.05660377358487"/>
      <point x="253.2971698113207" y="445.90094339622635"/>
      <point x="327.0707547169812" y="445.90094339622635" type="curve" smooth="yes"/>
      <point x="390.74056603773585" y="445.90094339622635"/>
      <point x="435.42452830188677" y="424.8820754716981"/>
      <point x="460.4433962264151" y="376.8254716981132" type="curve"/>
      <point x="484.61792452830184" y="456.2971698113207" type="line"/>
      <point x="457.07547169811323" y="456.2971698113207" type="line"/>
      <point x="431.44339622641513" y="505.80660377358487"/>
      <point x="384.93396226415103" y="544.9811320754717"/>
    </contour>
    <contour>
      <point x="494.7594339622641" y="537.2264150943397" type="curve"/>
      <point x="477.51415094339626" y="497.4905660377358"/>
      <point x="463.5141509433962" y="457.9292452830189"/>
      <point x="451.95283018867923" y="422.0518867924528" type="curve" smooth="yes"/>
      <point x="407.02358490566036" y="276.8066037735848"/>
      <point x="393.3018867924529" y="161.41509433962264"/>
      <point x="353.35377358490564" y="47.73113207547171" type="curve" smooth="yes"/>
      <point x="335.16037735849056" y="-4.023584905660371"/>
      <point x="315.91509433962267" y="-37.268867924528294"/>
      <point x="290.93396226415103" y="-70.81132075471697" type="curve" smooth="yes"/>
      <point x="255.2311320754717" y="-91.53301886792451"/>
      <point x="215.89622641509433" y="-102.55188679245282"/>
      <point x="170.22641509433961" y="-102.55188679245282" type="curve" smooth="yes"/>
      <point x="101.36792452830187" y="-102.55188679245282"/>
      <point x="59.632075471698116" y="-91.42924528301887"/>
      <point x="23.0" y="-67.84905660377358" type="curve"/>
      <point x="17.000000000000007" y="-67.84905660377358" type="line"/>
      <point x="11.438679245283026" y="-76.77830188679245"/>
      <point x="7.438679245283026" y="-86.58490566037737"/>
      <point x="4.316037735849063" y="-98.39150943396226" type="curve" smooth="yes"/>
      <point x="-2.6132075471698037" y="-126.4245283018868"/>
      <point x="-0.7358490566037656" y="-149.4575471698113"/>
      <point x="10.438679245283028" y="-164.87735849056602" type="curve" smooth="yes"/>
      <point x="25.438679245283012" y="-185.438679245283"/>
      <point x="62.52830188679244" y="-205.0"/>
      <point x="134.50943396226418" y="-205.0" type="curve" smooth="yes"/>
      <point x="288.3867924528302" y="-205.0"/>
      <point x="394.67924528301893" y="-134.5283018867924"/>
      <point x="446.69811320754724" y="2.7547169811320784" type="curve" smooth="yes"/>
      <point x="498.08490566037733" y="138.01886792452828"/>
      <point x="509.6132075471698" y="288.60377358490564"/>
      <point x="574.2971698113207" y="452.51415094339626" type="curve" smooth="yes"/>
      <point x="593.7169811320755" y="502.65094339622647"/>
      <point x="563.245283018868" y="540.7877358490566"/>
      <point x="519.7405660377358" y="540.7877358490566" type="curve" smooth="yes"/>
      <point x="510.25000000000006" y="540.7877358490566"/>
      <point x="501.882075471698" y="539.2264150943397"/>
    </contour>
  </outline>
</glyph>
<glyph name="braceleft" format="2">
  <advance width="600.0"/>
  <unicode hex="007B"/>
  <outline>
    <contour>
      <point x="321.60849056603774" y="152.62735849056602" type="curve" smooth="yes"/>
      <point x="338.6792452830189" y="217.8207547169811"/>
      <point x="315.73113207547175" y="268.4198113207547"/>
      <point x="248.16981132075475" y="289.87735849056605" type="curve"/>
      <point x="249.6084905660378" y="295.87735849056605" type="line"/>
      <point x="327.5566037735849" y="317.877358490566"/>
      <point x="371.9433962264151" y="363.9669811320755"/>
      <point x="391.5047169811321" y="434.08962264150944" type="curve" smooth="yes"/>
      <point x="408.69811320754724" y="495.54716981132077"/>
      <point x="390.0283018867925" y="577.7783018867925"/>
      <point x="387.8018867924529" y="624.3207547169811" type="curve" smooth="yes"/>
      <point x="387.67924528301893" y="628.7594339622642"/>
      <point x="388.872641509434" y="635.7075471698114"/>
      <point x="390.6273584905661" y="640.4622641509434" type="curve"/>
      <point x="415.99528301886795" y="659.0424528301886"/>
      <point x="458.08490566037744" y="668.5518867924528"/>
      <point x="505.683962264151" y="668.5518867924528" type="curve" smooth="yes"/>
      <point x="534.9481132075471" y="668.5518867924528"/>
      <point x="559.3867924528303" y="665.1132075471698"/>
      <point x="574.8254716981131" y="660.5518867924528" type="curve"/>
      <point x="580.8254716981131" y="660.5518867924528" type="line"/>
      <point x="587.0707547169811" y="671.7264150943395"/>
      <point x="592.070754716981" y="682.0943396226414"/>
      <point x="596.316037735849" y="698.9528301886792" type="curve" smooth="yes"/>
      <point x="606.3679245283018" y="739.7216981132076"/>
      <point x="585.754716981132" y="770.0"/>
      <point x="542.8066037735849" y="770.0" type="curve"/>
      <point x="538.3679245283018" y="770.0" type="line" smooth="yes"/>
      <point x="406.19339622641513" y="770.0"/>
      <point x="321.58018867924534" y="728.7735849056603"/>
      <point x="303.1415094339623" y="655.0188679245283" type="curve" smooth="yes"/>
      <point x="301.58018867924534" y="648.7735849056604" type="line" smooth="yes"/>
      <point x="287.26415094339626" y="592.9481132075472"/>
      <point x="317.54716981132077" y="523.9292452830189"/>
      <point x="297.6698113207547" y="452.7358490566038" type="curve" smooth="yes"/>
      <point x="279.6698113207547" y="389.17452830188677"/>
      <point x="228.63207547169804" y="348.6981132075472"/>
      <point x="126.85849056603777" y="348.6981132075472" type="curve" smooth="yes"/>
      <point x="111.49056603773585" y="348.6981132075472" type="line"/>
      <point x="102.561320754717" y="335.83962264150944"/>
      <point x="97.31603773584906" y="321.9811320754717"/>
      <point x="94.1933962264151" y="309.12264150943395" type="curve" smooth="yes"/>
      <point x="85.50943396226415" y="274.16037735849056"/>
      <point x="94.56132075471699" y="249.86320754716982"/>
      <point x="122.34905660377363" y="249.86320754716982" type="curve" smooth="yes"/>
      <point x="124.91037735849056" y="249.86320754716982" type="line" smooth="yes"/>
      <point x="197.91509433962258" y="249.86320754716982"/>
      <point x="233.74056603773585" y="206.1933962264151"/>
      <point x="218.54716981132077" y="140.12264150943398" type="curve" smooth="yes"/>
      <point x="197.35377358490564" y="49.68396226415094"/>
      <point x="137.19339622641508" y="1.4386792452830193"/>
      <point x="126.1933962264151" y="-52.45754716981132" type="curve" smooth="yes"/>
      <point x="124.63207547169814" y="-59.0188679245283" type="line" smooth="yes"/>
      <point x="108.8254716981132" y="-132.6509433962264"/>
      <point x="170.93396226415098" y="-172.0"/>
      <point x="281.9339622641509" y="-172.0" type="curve" smooth="yes"/>
      <point x="289.0566037735849" y="-172.0" type="line" smooth="yes"/>
      <point x="349.9481132075472" y="-172.0"/>
      <point x="383.54245283018867" y="-145.52830188679243"/>
      <point x="396.4009433962264" y="-96.4622641509434" type="curve" smooth="yes"/>
      <point x="400.08490566037733" y="-82.2877358490566"/>
      <point x="399.64622641509436" y="-68.11320754716981"/>
      <point x="398.20754716981133" y="-58.745283018867916" type="curve"/>
      <point x="392.20754716981133" y="-58.745283018867916" type="line"/>
      <point x="367.47169811320754" y="-66.42924528301886"/>
      <point x="347.10377358490564" y="-69.55188679245282"/>
      <point x="313.71698113207555" y="-69.55188679245282" type="curve" smooth="yes"/>
      <point x="272.2405660377359" y="-69.55188679245282"/>
      <point x="238.71226415094333" y="-61.60377358490567"/>
      <point x="219.15094339622644" y="-43.58490566037736" type="curve"/>
      <point x="220.27358490566039" y="-39.2688679245283"/>
      <point x="221.8349056603773" y="-33.95283018867924"/>
      <point x="223.83490566037733" y="-29.32075471698113" type="curve" smooth="yes"/>
      <point x="246.18396226415098" y="13.29245283018868"/>
      <point x="301.6603773584906" y="76.80188679245282"/>
    </contour>
  </outline>
</glyph>
<glyph name="degree" format="2">
  <advance width="600.0"/>
  <unicode hex="00B0"/>
  <outline>
    <contour>
      <point x="370.75471698113205" y="710.0" type="curve"/>
      <point x="270.8254716981132" y="710.0"/>
      <point x="200.33490566037736" y="638.3160377358491"/>
      <point x="200.33490566037736" y="536.9481132075472" type="curve" smooth="yes"/>
      <point x="200.33490566037736" y="529.8254716981132" type="line" smooth="yes"/>
      <point x="200.33490566037736" y="430.45754716981133"/>
      <point x="269.8254716981132" y="364.2122641509434"/>
      <point x="364.75471698113205" y="364.2122641509434" type="curve"/>
      <point x="464.6839622641509" y="364.2122641509434"/>
      <point x="535.1745283018869" y="435.89622641509436"/>
      <point x="535.1745283018869" y="537.2641509433962" type="curve" smooth="yes"/>
      <point x="535.1745283018869" y="544.3867924528303" type="line" smooth="yes"/>
      <point x="535.1745283018869" y="643.7547169811321"/>
      <point x="465.6839622641509" y="710.0"/>
    </contour>
    <contour>
      <point x="359.75471698113205" y="439.83962264150944" type="curve" smooth="yes"/>
      <point x="342.0707547169811" y="439.83962264150944"/>
      <point x="327.9481132075472" y="441.9622641509434"/>
      <point x="313.14150943396226" y="449.89150943396226" type="curve" smooth="yes"/>
      <point x="291.8584905660377" y="467.20754716981133"/>
      <point x="279.8396226415094" y="494.54245283018867"/>
      <point x="279.8396226415094" y="528.9481132075472" type="curve" smooth="yes"/>
      <point x="279.8396226415094" y="536.0707547169811" type="line" smooth="yes"/>
      <point x="279.8396226415094" y="598.4764150943396"/>
      <point x="313.10377358490564" y="634.372641509434"/>
      <point x="375.75471698113205" y="634.372641509434" type="curve" smooth="yes"/>
      <point x="391.1933962264151" y="634.372641509434"/>
      <point x="404.193396226415" y="632.811320754717"/>
      <point x="416.75471698113205" y="627.127358490566" type="curve" smooth="yes"/>
      <point x="441.40566037735846" y="610.372641509434"/>
      <point x="455.66981132075466" y="581.9150943396227"/>
      <point x="455.66981132075466" y="545.2641509433962" type="curve" smooth="yes"/>
      <point x="455.66981132075466" y="538.1415094339623" type="line" smooth="yes"/>
      <point x="455.66981132075466" y="475.73584905660374"/>
      <point x="422.40566037735846" y="439.83962264150944"/>
    </contour>
  </outline>
</glyph>
<glyph name="threesuperior" format="2">
  <advance width="600.0"/>
  <unicode hex="00B3"/>
  <outline>
    <contour>
      <point x="515.6320754716982" y="634.1745283018869" type="curve" smooth="yes"/>
      <point x="517.0707547169812" y="640.0518867924528" type="line" smooth="yes"/>
      <point x="527.5094339622642" y="685.6650943396227"/>
      <point x="491.8254716981132" y="732.7877358490565"/>
      <point x="399.70283018867923" y="732.7877358490565" type="curve" smooth="yes"/>
      <point x="348.63207547169816" y="732.7877358490565"/>
      <point x="314.0" y="719.5943396226417"/>
      <point x="295.3160377358491" y="704.9103773584906" type="curve" smooth="yes"/>
      <point x="275.9481132075472" y="689.6650943396227"/>
      <point x="267.5801886792453" y="671.4198113207548"/>
      <point x="263.77358490566036" y="651.438679245283" type="curve" smooth="yes"/>
      <point x="261.6509433962264" y="639.632075471698"/>
      <point x="261.52830188679246" y="631.632075471698"/>
      <point x="263.40566037735846" y="621.9481132075472" type="curve"/>
      <point x="269.40566037735846" y="621.9481132075472" type="line"/>
      <point x="296.7735849056603" y="649.4575471698113"/>
      <point x="336.52830188679246" y="662.4056603773586"/>
      <point x="377.9858490566038" y="662.4056603773586" type="curve" smooth="yes"/>
      <point x="421.6367924528302" y="662.4056603773586"/>
      <point x="444.07547169811323" y="649.7028301886793"/>
      <point x="446.37264150943395" y="630.0000000000001" type="curve" smooth="yes"/>
      <point x="425.25" y="597.367924528302"/>
      <point x="373.4764150943397" y="581.2971698113208"/>
      <point x="311.7547169811321" y="581.2971698113208" type="curve"/>
      <point x="307.31603773584914" y="574.1745283018869"/>
      <point x="304.19339622641513" y="564.6839622641509"/>
      <point x="301.63207547169816" y="554.8773584905659" type="curve" smooth="yes"/>
      <point x="295.9481132075472" y="532.2641509433963"/>
      <point x="301.26415094339626" y="523.8962264150944"/>
      <point x="318.1415094339623" y="522.7735849056604" type="curve" smooth="yes"/>
      <point x="382.3207547169811" y="518.8443396226415"/>
      <point x="412.4433962264151" y="498.1415094339622"/>
      <point x="418.42452830188677" y="470.50943396226415" type="curve" smooth="yes"/>
      <point x="403.6179245283019" y="440.98113207547175"/>
      <point x="373.54716981132077" y="432.98113207547175"/>
      <point x="327.0188679245283" y="432.98113207547175" type="curve" smooth="yes"/>
      <point x="282.8773584905661" y="432.98113207547175"/>
      <point x="249.07075471698113" y="444.7358490566037"/>
      <point x="230.14150943396228" y="471.56132075471703" type="curve"/>
      <point x="224.14150943396228" y="471.56132075471703" type="line"/>
      <point x="215.70283018867926" y="461.7547169811321"/>
      <point x="210.7028301886793" y="450.3867924528302"/>
      <point x="207.14150943396228" y="438.14150943396226" type="curve" smooth="yes"/>
      <point x="202.45754716981133" y="419.9669811320755"/>
      <point x="205.33490566037736" y="406.8443396226415"/>
      <point x="215.7028301886793" y="395.0377358490566" type="curve" smooth="yes"/>
      <point x="227.6320754716981" y="381.2311320754717"/>
      <point x="259.82547169811323" y="366.6509433962264"/>
      <point x="322.21226415094344" y="366.6509433962264" type="curve" smooth="yes"/>
      <point x="404.7547169811321" y="366.6509433962264"/>
      <point x="465.7547169811321" y="392.7028301886793"/>
      <point x="478.7547169811321" y="449.40566037735846" type="curve" smooth="yes"/>
      <point x="480.3160377358491" y="456.08962264150944" type="line" smooth="yes"/>
      <point x="490.56132075471703" y="500.01886792452825"/>
      <point x="466.50943396226415" y="542.8773584905659"/>
      <point x="387.0188679245283" y="558.5094339622641" type="curve"/>
      <point x="412.1415094339623" y="538.877358490566" type="line"/>
      <point x="420.01886792452837" y="570.5094339622641" type="line"/>
      <point x="385.01886792452825" y="547.316037735849" type="line"/>
      <point x="472.3160377358491" y="566.632075471698"/>
      <point x="506.07075471698124" y="591.316037735849"/>
    </contour>
  </outline>
</glyph>
<glyph name="ae" format="2">
  <advance width="600.0"/>
  <unicode hex="00E6"/>
  <anchor x="371.82547169811323" y="544.8584905660377" name="top"/>
  <outline>
    <contour>
      <point x="222.07075471698116" y="543.8584905660377" type="curve" smooth="yes"/>
      <point x="170.58018867924528" y="543.8584905660377"/>
      <point x="137.38679245283018" y="533.5424528301887"/>
      <point x="116.82547169811319" y="516.4198113207547" type="curve" smooth="yes"/>
      <point x="100.65094339622641" y="502.8066037735849"/>
      <point x="93.40566037735849" y="484.1415094339623"/>
      <point x="88.59905660377359" y="461.03773584905656" type="curve" smooth="yes"/>
      <point x="85.35377358490568" y="444.3018867924529"/>
      <point x="85.2311320754717" y="433.8113207547169"/>
      <point x="85.66981132075473" y="423.7594339622641" type="curve"/>
      <point x="91.6698113207547" y="423.7594339622641" type="line"/>
      <point x="125.03773584905665" y="440.6367924528302"/>
      <point x="157.5990566037736" y="448.39150943396226"/>
      <point x="203.5990566037736" y="448.39150943396226" type="curve" smooth="yes"/>
      <point x="265.10849056603774" y="448.39150943396226"/>
      <point x="293.98584905660374" y="410.8632075471698"/>
      <point x="273.72169811320754" y="330.24528301886795" type="curve"/>
      <point x="229.40566037735852" y="153.78773584905665" type="line"/>
      <point x="201.43867924528305" y="95.67924528301887"/>
      <point x="170.10377358490564" y="80.29245283018867"/>
      <point x="130.5754716981132" y="80.29245283018867" type="curve" smooth="yes"/>
      <point x="127.13679245283018" y="80.29245283018867" type="line" smooth="yes"/>
      <point x="89.92452830188678" y="80.29245283018867"/>
      <point x="76.85377358490565" y="100.87264150943395"/>
      <point x="87.7311320754717" y="147.01415094339623" type="curve" smooth="yes"/>
      <point x="89.73113207547169" y="155.45283018867923" type="line" smooth="yes"/>
      <point x="96.48584905660375" y="181.59433962264154"/>
      <point x="108.31132075471699" y="206.41981132075472"/>
      <point x="123.20754716981132" y="227.43867924528303" type="curve" smooth="yes"/>
      <point x="140.08490566037733" y="234.75471698113208"/>
      <point x="161.83962264150944" y="238.07075471698116"/>
      <point x="190.85849056603777" y="238.07075471698116" type="curve"/>
      <point x="226.24528301886792" y="238.07075471698116"/>
      <point x="250.00000000000003" y="232.82547169811323"/>
      <point x="287.43867924528297" y="222.7028301886792" type="curve"/>
      <point x="305.7358490566037" y="296.57547169811323" type="line"/>
      <point x="289.9999999999999" y="296.57547169811323" type="line"/>
      <point x="268.3679245283019" y="307.1367924528302"/>
      <point x="235.68396226415092" y="317.8207547169811"/>
      <point x="181.89622641509436" y="317.8207547169811" type="curve" smooth="yes"/>
      <point x="94.56132075471697" y="317.8207547169811"/>
      <point x="22.89622641509434" y="266.9622641509434"/>
      <point x="-5.419811320754714" y="157.96226415094338" type="curve" smooth="yes"/>
      <point x="-8.9811320754717" y="144.1556603773585" type="line" smooth="yes"/>
      <point x="-33.91037735849057" y="47.50943396226415"/>
      <point x="15.367924528301895" y="-10.56132075471698"/>
      <point x="109.83962264150946" y="-10.0" type="curve" smooth="yes"/>
      <point x="178.29716981132077" y="-9.43867924528302"/>
      <point x="243.56132075471695" y="27.580188679245275"/>
      <point x="279.61320754716985" y="97.30188679245279" type="curve"/>
      <point x="253.01886792452822" y="97.30188679245279" type="line"/>
      <point x="264.3679245283019" y="22.825471698113205"/>
      <point x="315.73584905660374" y="-11.122641509433961"/>
      <point x="389.0" y="-11.122641509433961" type="curve" smooth="yes"/>
      <point x="437.1226415094339" y="-11.122641509433961"/>
      <point x="472.5094339622642" y="-2.4905660377358485"/>
      <point x="496.19339622641513" y="13.82547169811321" type="curve" smooth="yes"/>
      <point x="511.80660377358487" y="24.070754716981128"/>
      <point x="521.8584905660377" y="42.68396226415094"/>
      <point x="526.2264150943396" y="68.71698113207547" type="curve"/>
      <point x="528.3490566037736" y="81.33018867924527"/>
      <point x="528.5943396226415" y="97.50471698113206"/>
      <point x="526.1556603773586" y="111.48584905660377" type="curve"/>
      <point x="520.1556603773585" y="111.48584905660377" type="line"/>
      <point x="486.1037735849057" y="90.22169811320757"/>
      <point x="454.5424528301887" y="81.9056603773585"/>
      <point x="409.22641509433964" y="81.9056603773585" type="curve" smooth="yes"/>
      <point x="380.98113207547163" y="81.9056603773585"/>
      <point x="351.683962264151" y="85.58962264150945"/>
      <point x="334.0518867924528" y="94.83490566037736" type="curve" smooth="yes"/>
      <point x="321.4009433962264" y="119.66037735849058"/>
      <point x="315.8207547169812" y="152.31132075471697"/>
      <point x="329.4009433962265" y="206.94811320754715" type="curve"/>
      <point x="354.76886792452837" y="308.4198113207547" type="line" smooth="yes"/>
      <point x="382.0330188679246" y="417.91509433962267"/>
      <point x="417.7547169811321" y="457.004716981132"/>
      <point x="475.28301886792445" y="457.004716981132" type="curve" smooth="yes"/>
      <point x="488.1603773584906" y="457.004716981132"/>
      <point x="500.79245283018867" y="455.56603773584914"/>
      <point x="512.9858490566037" y="451.5660377358491" type="curve" smooth="yes"/>
      <point x="521.6886792452829" y="428.86320754716985"/>
      <point x="519.882075471698" y="398.28301886792457"/>
      <point x="511.12735849056594" y="363.2641509433962" type="curve"/>
      <point x="493.9858490566036" y="292.6981132075472"/>
      <point x="467.40566037735846" y="276.38207547169816"/>
      <point x="417.0518867924529" y="276.38207547169816" type="curve"/>
      <point x="380.1037735849057" y="276.38207547169816"/>
      <point x="357.27830188679246" y="280.2594339622642"/>
      <point x="324.52358490566047" y="292.01415094339626" type="curve"/>
      <point x="306.2264150943397" y="221.26415094339623" type="line"/>
      <point x="319.0330188679245" y="221.2641509433962" type="line"/>
      <point x="342.85849056603774" y="208.31603773584902"/>
      <point x="378.41981132075466" y="199.07075471698113"/>
      <point x="426.4716981132076" y="199.07075471698113" type="curve" smooth="yes"/>
      <point x="509.12264150943395" y="199.07075471698113"/>
      <point x="566.9811320754716" y="236.0188679245283"/>
      <point x="597.4198113207547" y="352.1415094339623" type="curve" smooth="yes"/>
      <point x="598.4198113207547" y="356.26415094339626"/>
      <point x="599.9811320754716" y="360.9481132075472"/>
      <point x="600.9811320754716" y="366.3867924528302" type="curve" smooth="yes"/>
      <point x="627.7877358490566" y="473.7358490566038"/>
      <point x="581.4386792452832" y="544.9811320754717"/>
      <point x="490.1415094339622" y="544.9811320754717" type="curve" smooth="yes"/>
      <point x="422.561320754717" y="544.9811320754717"/>
      <point x="374.0518867924529" y="516.5235849056603"/>
      <point x="334.8066037735849" y="443.2594339622641" type="curve"/>
      <point x="351.2971698113207" y="443.2594339622641" type="line"/>
      <point x="341.70283018867923" y="500.9622641509434"/>
      <point x="298.33490566037733" y="543.8584905660377"/>
    </contour>
  </outline>
</glyph>
<glyph name="ldot" format="2">
  <advance width="600.0"/>
  <unicode hex="0140"/>
  <outline>
    <contour>
      <point x="23.29716981132075" y="102.44811320754715" type="line"/>
      <point x="19.174528301886784" y="95.08018867924528"/>
      <point x="16.613207547169807" y="88.27358490566036"/>
      <point x="14.051886792452825" y="79.15094339622641" type="curve" smooth="yes"/>
      <point x="1.6320754716981085" y="30.40094339622642"/>
      <point x="21.98113207547169" y="0.0"/>
      <point x="67.04716981132077" y="0.0" type="curve" smooth="yes"/>
      <point x="477.85849056603774" y="0.0" type="line"/>
      <point x="483.78773584905656" y="8.735849056603772"/>
      <point x="487.03301886792457" y="16.910377358490564"/>
      <point x="489.7169811320755" y="27.64622641509434" type="curve" smooth="yes"/>
      <point x="499.4528301886793" y="70.97641509433961"/>
      <point x="426.78301886792457" y="102.44811320754715"/>
      <point x="289.8207547169811" y="102.44811320754715" type="curve"/>
    </contour>
    <contour>
      <point x="585.3301886792452" y="341.84433962264154" type="curve"/>
      <point x="599.8915094339623" y="400.01886792452825" type="line" smooth="yes"/>
      <point x="609.382075471698" y="439.9811320754717"/>
      <point x="585.9622641509433" y="461.4009433962264"/>
      <point x="543.8584905660376" y="461.4009433962264" type="curve" smooth="yes"/>
      <point x="527.3679245283018" y="461.4009433962264"/>
      <point x="507.8254716981132" y="459.83962264150944"/>
      <point x="491.4056603773585" y="456.7169811320755" type="curve"/>
      <point x="477.9669811320755" y="404.7169811320755" type="line" smooth="yes"/>
      <point x="465.6698113207547" y="355.2122641509434"/>
      <point x="492.3349056603774" y="337.16037735849056"/>
      <point x="533.4386792452831" y="337.16037735849056" type="curve" smooth="yes"/>
      <point x="549.9292452830189" y="337.16037735849056"/>
      <point x="568.9103773584905" y="338.72169811320754"/>
    </contour>
    <contour>
      <point x="203.45754716981133" y="750.0" type="curve"/>
      <point x="196.08962264150944" y="739.3867924528302"/>
      <point x="189.72169811320754" y="725.0896226415094"/>
      <point x="185.4764150943396" y="708.2311320754717" type="curve" smooth="yes"/>
      <point x="175.86320754716976" y="669.9009433962262"/>
      <point x="182.5471698113207" y="647.1132075471696"/>
      <point x="208.08962264150938" y="647.1132075471696" type="curve" smooth="yes"/>
      <point x="238.45754716981128" y="647.1132075471696"/>
      <point x="277.3018867924527" y="656.3066037735849"/>
      <point x="347.0235849056604" y="675.0943396226414" type="curve"/>
      <point x="351.58490566037733" y="670.2169811320755" type="line"/>
      <point x="323.0943396226415" y="510.683962264151"/>
      <point x="235.2311320754717" y="356.34433962264154"/>
      <point x="208.03773584905662" y="187.51415094339623" type="curve" smooth="yes"/>
      <point x="201.6698113207547" y="150.48113207547172"/>
      <point x="210.7216981132076" y="123.93867924528303"/>
      <point x="231.07075471698113" y="107.44811320754717" type="curve"/>
      <point x="220.38679245283015" y="87.0801886792453" type="line"/>
      <point x="297.9952830188679" y="87.0801886792453" type="line"/>
      <point x="313.188679245283" y="311.0471698113207"/>
      <point x="435.1037735849057" y="479.3537735849057"/>
      <point x="458.9622641509433" y="686.4811320754718" type="curve" smooth="yes"/>
      <point x="467.2594339622641" y="740.8443396226413"/>
      <point x="443.7169811320754" y="760.0"/>
      <point x="369.61792452830184" y="760.0" type="curve"/>
      <point x="306.6886792452831" y="760.0"/>
      <point x="264.2830188679245" y="756.5613207547169"/>
    </contour>
  </outline>
</glyph>
<glyph name="Eng" format="2">
  <advance width="600.0"/>
  <unicode hex="014A"/>
  <outline>
    <contour>
      <point x="199.54245283018872" y="-143.8679245283019" type="curve" smooth="yes"/>
      <point x="144.41981132075472" y="-143.8679245283019"/>
      <point x="115.49056603773582" y="-136.8679245283019"/>
      <point x="80.36792452830191" y="-112.23584905660377" type="curve"/>
      <point x="74.36792452830188" y="-112.23584905660377" type="line"/>
      <point x="69.24528301886792" y="-121.60377358490567"/>
      <point x="61.75471698113207" y="-134.90094339622644"/>
      <point x="57.07075471698112" y="-151.19811320754718" type="curve" smooth="yes"/>
      <point x="49.702830188679236" y="-177.66981132075472"/>
      <point x="53.8254716981132" y="-202.70283018867926"/>
      <point x="69.68396226415094" y="-220.0" type="curve" smooth="yes"/>
      <point x="86.05188679245282" y="-239.2452830188679"/>
      <point x="124.0" y="-250.0"/>
      <point x="175.87735849056602" y="-250.0" type="curve" smooth="yes"/>
      <point x="332.56132075471703" y="-250.0"/>
      <point x="434.98479653723166" y="-172.91450018680095"/>
      <point x="476.9811320754717" y="0.0" type="curve"/>
      <point x="467.4905660377358" y="21.103773584905664"/>
      <point x="445.5094339622641" y="34.59433962264151"/>
      <point x="389.0754716981132" y="34.59433962264151" type="curve"/>
      <point x="359.88207547169816" y="-92.39150943396224"/>
      <point x="298.35377358490564" y="-143.8679245283019"/>
    </contour>
    <component base="N"/>
  </outline>
</glyph>
<glyph name="tbar" format="2">
  <advance width="600.0"/>
  <unicode hex="0167"/>
  <outline>
    <contour>
      <point x="51.79245283018869" y="331.17452830188677" type="line"/>
      <point x="48.108490566037744" y="322.2452830188679"/>
      <point x="43.86320754716982" y="311.07075471698107"/>
      <point x="40.74056603773584" y="297.14150943396226" type="curve" smooth="yes"/>
      <point x="31.127358490566035" y="254.37264150943392"/>
      <point x="40.93396226415095" y="237.95283018867923"/>
      <point x="87.43867924528305" y="237.95283018867923" type="curve" smooth="yes"/>
      <point x="480.74056603773585" y="237.95283018867923" type="line"/>
      <point x="487.23113207547175" y="248.12735849056597"/>
      <point x="490.9150943396227" y="256.4952830188679"/>
      <point x="494.59905660377365" y="269.5471698113207" type="curve" smooth="yes"/>
      <point x="506.3349056603774" y="310.877358490566"/>
      <point x="490.6698113207548" y="331.17452830188677"/>
      <point x="447.02358490566024" y="331.17452830188677" type="curve"/>
    </contour>
    <component base="t"/>
  </outline>
</glyph>
<glyph name="dotlessj" format="2">
  <advance width="600.0"/>
  <unicode hex="0237"/>
  <outline>
    <contour>
      <point x="170.24528301886792" y="474.1179245283019" type="curve"/>
      <point x="161.0707547169811" y="461.25943396226415"/>
      <point x="154.01886792452828" y="445.27830188679246"/>
      <point x="149.6509433962264" y="426.4905660377359" type="curve"/>
      <point x="139.79245283018867" y="384.10849056603774"/>
      <point x="153.8443396226415" y="363.00471698113205"/>
      <point x="179.31603773584905" y="363.00471698113205" type="curve" smooth="yes"/>
      <point x="221.24528301886792" y="363.00471698113205"/>
      <point x="290.2830188679245" y="420.061320754717"/>
      <point x="415.4952830188679" y="461.3207547169811" type="curve"/>
      <point x="421.6179245283018" y="455.88207547169816" type="line"/>
      <point x="399.61792452830184" y="284.38679245283015"/>
      <point x="367.7924528301886" y="162.87264150943398"/>
      <point x="317.33490566037733" y="52.46698113207548" type="curve"/>
      <point x="264.8254716981132" y="-61.165094339622655"/>
      <point x="217.9481132075471" y="-97.55188679245282"/>
      <point x="157.27830188679246" y="-97.55188679245282" type="curve"/>
      <point x="134.9245283018868" y="-97.55188679245282"/>
      <point x="119.71226415094334" y="-90.72641509433961"/>
      <point x="111.64150943396227" y="-70.61792452830187" type="curve"/>
      <point x="112.58962264150945" y="-0.6132075471698144"/>
      <point x="145.18867924528303" y="87.21226415094337"/>
      <point x="243.3867924528302" y="142.05188679245282" type="curve"/>
      <point x="243.38679245283018" y="148.05188679245282" type="line"/>
      <point x="237.2641509433962" y="150.05188679245282"/>
      <point x="230.14150943396228" y="151.05188679245282"/>
      <point x="217.0" y="151.05188679245282" type="curve" smooth="yes"/>
      <point x="165.50943396226415" y="151.05188679245282"/>
      <point x="112.21226415094335" y="130.05188679245282"/>
      <point x="80.77358490566036" y="98.6132075471698" type="curve" smooth="yes"/>
      <point x="48.77358490566037" y="66.61320754716981"/>
      <point x="29.141509433962277" y="33.910377358490564"/>
      <point x="16.14150943396227" y="-17.03773584905661" type="curve"/>
      <point x="2.4575471698113294" y="-71.2311320754717"/>
      <point x="18.6320754716981" y="-121.59905660377358"/>
      <point x="52.683962264150935" y="-155.6509433962264" type="curve" smooth="yes"/>
      <point x="80.41981132075472" y="-183.38679245283018"/>
      <point x="118.96226415094338" y="-200.0"/>
      <point x="161.57547169811318" y="-200.0" type="curve"/>
      <point x="259.7169811320755" y="-200.0"/>
      <point x="337.3113207547169" y="-150.80660377358492"/>
      <point x="412.43396226415086" y="9.245283018867907" type="curve"/>
      <point x="470.3820754716981" y="132.8254716981132"/>
      <point x="508.82075471698107" y="301.48113207547175"/>
      <point x="525.627358490566" y="455.58490566037733" type="curve" smooth="yes"/>
      <point x="530.433962264151" y="498.03773584905656"/>
      <point x="494.47169811320754" y="543.8584905660377"/>
      <point x="440.03773584905656" y="543.8584905660377" type="curve" smooth="yes"/>
      <point x="367.9150943396226" y="543.8584905660377"/>
      <point x="251.86320754716985" y="515.6650943396226"/>
    </contour>
  </outline>
</glyph>
<glyph name="ringhalfrightmod" format="2">
  <advance width="600.0"/>
  <unicode hex="02BE"/>
  <outline>
    <contour>
      <point x="319.3679245283019" y="598.1415094339623" type="curve" smooth="yes"/>
      <point x="390.0518867924528" y="598.1415094339623"/>
      <point x="449.22641509433964" y="623.6509433962264"/>
      <point x="473.20754716981133" y="716.6132075471698" type="curve" smooth="yes"/>
      <point x="475.20754716981133" y="724.929245283019" type="line" smooth="yes"/>
      <point x="492.8207547169811" y="794.5943396226415"/>
      <point x="451.9622641509434" y="846.9433962264151"/>
      <point x="380.10377358490564" y="846.9433962264151" type="curve"/>
      <point x="369.80660377358487" y="830.7688679245283"/>
      <point x="362.7547169811321" y="815.0330188679245"/>
      <point x="358.6320754716981" y="798.5424528301887" type="curve" smooth="yes"/>
      <point x="356.50943396226415" y="788.6132075471698"/>
      <point x="358.1933962264151" y="783.2452830188679"/>
      <point x="367.00000000000006" y="783.2452830188679" type="curve" smooth="yes"/>
      <point x="380.3679245283019" y="783.2452830188679"/>
      <point x="391.3679245283019" y="781.3679245283018"/>
      <point x="398.8066037735849" y="776.3679245283018" type="curve"/>
      <point x="408.3867924528302" y="766.0518867924528"/>
      <point x="409.7028301886793" y="750.2971698113208"/>
      <point x="404.9481132075472" y="731.5943396226414" type="curve" smooth="yes"/>
      <point x="402.9481132075472" y="724.0330188679246" type="line" smooth="yes"/>
      <point x="393.7547169811321" y="689.8915094339623"/>
      <point x="367.9292452830189" y="671.9433962264151"/>
      <point x="330.34905660377353" y="670.2594339622642" type="curve"/>
      <point x="320.61320754716974" y="651.8396226415094"/>
      <point x="312.99999999999994" y="632.8584905660377"/>
      <point x="309.43867924528297" y="618.3679245283018" type="curve" smooth="yes"/>
      <point x="305.63207547169804" y="602.9481132075472"/>
      <point x="308.316037735849" y="598.1415094339623"/>
    </contour>
  </outline>
</glyph>
<glyph name="ellipsis" format="2">
  <advance width="600.0"/>
  <unicode hex="2026"/>
  <outline>
    <contour>
      <point x="101.50943396226415" y="1.141509433962264" type="curve"/>
      <point x="127.0518867924528" y="100.31132075471697" type="line" smooth="yes"/>
      <point x="138.29716981132074" y="144.7311320754717"/>
      <point x="118.41981132075472" y="164.85377358490564"/>
      <point x="63.68396226415094" y="164.85377358490564" type="curve" smooth="yes"/>
      <point x="45.92924528301888" y="164.85377358490564"/>
      <point x="21.87735849056604" y="160.97641509433961"/>
      <point x="6.31603773584906" y="155.34433962264148" type="curve"/>
      <point x="-18.66509433962264" y="56.174528301886795" type="line" smooth="yes"/>
      <point x="-29.910377358490564" y="12.316037735849056"/>
      <point x="-9.471698113207548" y="-8.367924528301886"/>
      <point x="44.702830188679265" y="-8.367924528301886" type="curve" smooth="yes"/>
      <point x="65.8254716981132" y="-8.367924528301886"/>
      <point x="85.3867924528302" y="-5.05188679245283"/>
    </contour>
    <contour>
      <point x="300.12264150943383" y="1.141509433962264" type="curve"/>
      <point x="325.6650943396226" y="100.31132075471697" type="line" smooth="yes"/>
      <point x="336.9103773584905" y="144.7311320754717"/>
      <point x="317.0330188679245" y="164.85377358490564"/>
      <point x="262.29716981132077" y="164.85377358490564" type="curve" smooth="yes"/>
      <point x="244.54245283018867" y="164.85377358490564"/>
      <point x="220.49056603773585" y="160.97641509433961"/>
      <point x="204.92924528301884" y="155.34433962264148" type="curve"/>
      <point x="179.94811320754712" y="56.174528301886795" type="line" smooth="yes"/>
      <point x="168.70283018867923" y="12.316037735849056"/>
      <point x="189.14150943396223" y="-8.367924528301886"/>
      <point x="243.31603773584902" y="-8.367924528301886" type="curve" smooth="yes"/>
      <point x="264.438679245283" y="-8.367924528301886"/>
      <point x="283.99999999999994" y="-5.05188679245283"/>
    </contour>
    <contour>
      <point x="499.29716981132066" y="1.141509433962264" type="curve"/>
      <point x="524.8396226415093" y="100.31132075471697" type="line" smooth="yes"/>
      <point x="536.0849056603773" y="144.7311320754717"/>
      <point x="516.2075471698113" y="164.85377358490564"/>
      <point x="461.47169811320754" y="164.85377358490564" type="curve" smooth="yes"/>
      <point x="443.7169811320756" y="164.85377358490564"/>
      <point x="419.66509433962267" y="160.97641509433961"/>
      <point x="404.1037735849057" y="155.34433962264148" type="curve"/>
      <point x="379.1226415094339" y="56.174528301886795" type="line" smooth="yes"/>
      <point x="367.87735849056594" y="12.316037735849056"/>
      <point x="388.316037735849" y="-8.367924528301886"/>
      <point x="442.4905660377358" y="-8.367924528301886" type="curve" smooth="yes"/>
      <point x="463.6132075471698" y="-8.367924528301886"/>
      <point x="483.17452830188677" y="-5.05188679245283"/>
    </contour>
  </outline>
</glyph>
<glyph name="second" format="2">
  <advance width="600.0"/>
  <unicode hex="2033"/>
  <outline>
    <contour>
      <point x="148.21226415094344" y="434.24528301886795" type="curve" smooth="yes"/>
      <point x="167.63207547169816" y="434.24528301886795"/>
      <point x="191.05188679245282" y="437.9292452830189"/>
      <point x="215.1037735849057" y="456.29716981132077" type="curve" smooth="yes"/>
      <point x="285.64622641509436" y="509.7877358490566"/>
      <point x="381.2122641509434" y="641.8443396226415"/>
      <point x="397.65094339622647" y="708.8443396226415" type="curve" smooth="yes"/>
      <point x="406.58018867924534" y="744.7547169811321"/>
      <point x="388.16037735849056" y="755.561320754717"/>
      <point x="358.74056603773585" y="755.561320754717" type="curve" smooth="yes"/>
      <point x="331.3207547169812" y="755.561320754717"/>
      <point x="310.5849056603774" y="753.122641509434"/>
      <point x="289.53301886792457" y="748.122641509434" type="curve"/>
      <point x="244.70754716981128" y="630.1037735849056"/>
      <point x="176.95283018867926" y="529.4905660377358"/>
      <point x="97.25" y="447.49056603773585" type="curve"/>
      <point x="112.17924528301887" y="437.24528301886795"/>
      <point x="127.10849056603774" y="434.24528301886795"/>
    </contour>
    <contour>
      <point x="334.03301886792445" y="434.24528301886795" type="curve" smooth="yes"/>
      <point x="353.4528301886792" y="434.24528301886795"/>
      <point x="376.87264150943395" y="437.9292452830189"/>
      <point x="400.9245283018867" y="456.29716981132077" type="curve" smooth="yes"/>
      <point x="471.4669811320755" y="509.7877358490566"/>
      <point x="567.0330188679245" y="641.8443396226415"/>
      <point x="583.4716981132076" y="708.8443396226415" type="curve" smooth="yes"/>
      <point x="592.4009433962264" y="744.7547169811321"/>
      <point x="573.9811320754717" y="755.561320754717"/>
      <point x="544.5613207547169" y="755.561320754717" type="curve" smooth="yes"/>
      <point x="517.1415094339623" y="755.561320754717"/>
      <point x="496.40566037735846" y="753.122641509434"/>
      <point x="475.3537735849055" y="748.122641509434" type="curve"/>
      <point x="431.6509433962264" y="629.5424528301886"/>
      <point x="363.89622641509436" y="528.9292452830189"/>
      <point x="283.0707547169811" y="447.49056603773585" type="curve"/>
      <point x="298.0" y="437.24528301886795"/>
      <point x="312.9292452830188" y="434.24528301886795"/>
    </contour>
  </outline>
</glyph>
<glyph name="dong" format="2">
  <advance width="600.0"/>
  <unicode hex="20AB"/>
  <outline>
    <contour>
      <point x="488.75000000000006" y="137.9622641509434" type="curve"/>
      <point x="485.3113207547171" y="166.188679245283"/>
      <point x="485.872641509434" y="186.31132075471697"/>
      <point x="495.433962264151" y="232.01415094339623" type="curve" smooth="yes"/>
      <point x="515.75" y="331.2641509433962"/>
      <point x="575.0515424528303" y="514.0323537735849"/>
      <point x="604.0849056603773" y="652.7405660377359" type="curve" smooth="yes"/>
      <point x="620.3820754716982" y="725.7028301886792"/>
      <point x="600.1037735849055" y="756.0"/>
      <point x="548.2122641509432" y="756.0" type="curve"/>
      <point x="530.3537735849055" y="756.0"/>
      <point x="515.4952830188679" y="754.438679245283"/>
      <point x="502.127358490566" y="750.0" type="curve"/>
      <point x="508.37264150943395" y="722.632075471698"/>
      <point x="505.56603773584897" y="694.0896226415093"/>
      <point x="498.00471698113205" y="654.5094339622641" type="curve" smooth="yes"/>
      <point x="470.287391509434" y="517.4338584905661"/>
      <point x="407.03773584905656" y="335.17452830188677"/>
      <point x="388.03773584905656" y="221.1320754716981" type="curve" smooth="yes"/>
      <point x="374.4952830188679" y="160.31132075471697"/>
      <point x="395.03773584905656" y="131.27830188679246"/>
      <point x="446.22641509433964" y="131.27830188679246" type="curve" smooth="yes"/>
      <point x="462.4009433962264" y="131.27830188679246"/>
      <point x="476.13679245283015" y="133.27830188679246"/>
    </contour>
    <contour>
      <point x="4.52830188679245" y="78.55660377358491" type="line"/>
      <point x="0.28301886792452713" y="71.62735849056605"/>
      <point x="-3.400943396226416" y="62.136792452830186"/>
      <point x="-6.523584905660378" y="50.20754716981132" type="curve" smooth="yes"/>
      <point x="-14.452830188679247" y="18.49056603773585"/>
      <point x="-5.839622641509434" y="0.0"/>
      <point x="29.56132075471698" y="0.0" type="curve" smooth="yes"/>
      <point x="491.64622641509436" y="0.0" type="line"/>
      <point x="498.13679245283026" y="9.174528301886793"/>
      <point x="502.94339622641513" y="17.66509433962264"/>
      <point x="507.188679245283" y="31.40094339622641" type="curve" smooth="yes"/>
      <point x="514.9952830188679" y="58.38207547169811"/>
      <point x="505.38207547169816" y="78.55660377358491"/>
      <point x="467.2783018867925" y="78.55660377358491" type="curve"/>
    </contour>
    <contour>
      <point x="306.9764150943396" y="682.5424528301887" type="line"/>
      <point x="302.7311320754717" y="675.0518867924527"/>
      <point x="297.48584905660374" y="665.6839622641509"/>
      <point x="294.36320754716974" y="653.5094339622641" type="curve" smooth="yes"/>
      <point x="287.2405660377358" y="628.0896226415093"/>
      <point x="296.7311320754717" y="609.5990566037735"/>
      <point x="332.1320754716981" y="609.5990566037735" type="curve" smooth="yes"/>
      <point x="646.4009433962265" y="609.5990566037735" type="line"/>
      <point x="652.3301886792453" y="619.2122641509434"/>
      <point x="656.5754716981132" y="627.2641509433962"/>
      <point x="660.2594339622642" y="641.0" type="curve" smooth="yes"/>
      <point x="665.9433962264151" y="664.6132075471698"/>
      <point x="656.0141509433962" y="682.5424528301887"/>
      <point x="621.3490566037736" y="682.5424528301887" type="curve"/>
    </contour>
    <contour>
      <point x="449.25" y="484.9811320754717" type="line"/>
      <point x="429.2311320754717" y="530.683962264151"/>
      <point x="391.28301886792457" y="553.7547169811321"/>
      <point x="320.89622641509436" y="553.7547169811321" type="curve" smooth="yes"/>
      <point x="205.70283018867923" y="553.7547169811321"/>
      <point x="98.72169811320755" y="469.3679245283019"/>
      <point x="64.52830188679246" y="335.15566037735846" type="curve" smooth="yes"/>
      <point x="61.089622641509436" y="322.5235849056604" type="line" smooth="yes"/>
      <point x="29.47641509433962" y="210.10377358490567"/>
      <point x="74.91509433962264" y="129.08490566037736"/>
      <point x="181.10849056603777" y="129.08490566037736" type="curve" smooth="yes"/>
      <point x="257.5471698113207" y="129.08490566037736"/>
      <point x="327.1084905660377" y="161.45283018867926"/>
      <point x="388.30188679245276" y="257.71698113207543" type="curve"/>
      <point x="428.5094339622641" y="254.2075471698113" type="line"/>
      <point x="458.8584905660377" y="365.48113207547175" type="line"/>
      <point x="440.127358490566" y="400.5754716981132" type="line"/>
      <point x="370.29716981132077" y="271.21698113207543"/>
      <point x="291.5424528301886" y="226.4811320754717"/>
      <point x="219.83962264150944" y="226.4811320754717" type="curve" smooth="yes"/>
      <point x="192.18867924528305" y="226.4811320754717"/>
      <point x="174.60849056603774" y="231.86792452830187"/>
      <point x="160.22169811320754" y="249.22169811320757" type="curve"/>
      <point x="158.5896226415094" y="272.18867924528297"/>
      <point x="161.4669811320755" y="295.0849056603774"/>
      <point x="166.5377358490566" y="317.17452830188677" type="curve" smooth="yes"/>
      <point x="168.85377358490567" y="326.561320754717" type="line" smooth="yes"/>
      <point x="189.87264150943398" y="415.98584905660374"/>
      <point x="258.89150943396226" y="472.39150943396226"/>
      <point x="344.9811320754717" y="472.39150943396226" type="curve" smooth="yes"/>
      <point x="396.5801886792453" y="472.39150943396226"/>
      <point x="430.91509433962267" y="454.8632075471698"/>
      <point x="454.05660377358487" y="419.49056603773585" type="curve"/>
      <point x="479.2830188679245" y="431.77358490566036" type="line"/>
      <point x="495.52830188679246" y="486.7358490566038" type="line"/>
    </contour>
  </outline>
</glyph>
<glyph name="arrowupdown" format="2">
  <advance width="600.0"/>
  <unicode hex="2195"/>
  <outline>
    <contour>
      <point x="482.8018867924528" y="680.9669811320754" type="curve" smooth="yes"/>
      <point x="456.8915094339623" y="705.877358490566"/>
      <point x="437.85849056603774" y="710.0"/>
      <point x="399.0707547169811" y="710.0" type="curve" smooth="yes"/>
      <point x="390.45754716981133" y="710.0"/>
      <point x="380.08962264150944" y="710.0"/>
      <point x="371.47641509433964" y="710.0" type="curve"/>
      <point x="272.9858490566038" y="650.438679245283"/>
      <point x="167.94811320754715" y="569.7169811320755"/>
      <point x="111.50943396226414" y="513.9103773584906" type="curve" smooth="yes"/>
      <point x="81.2122641509434" y="482.9292452830189"/>
      <point x="66.96698113207546" y="463.99999999999994"/>
      <point x="62.283018867924525" y="447.8254716981132" type="curve" smooth="yes"/>
      <point x="56.47641509433963" y="425.35377358490564"/>
      <point x="66.65094339622641" y="415.10849056603774"/>
      <point x="99.1745283018868" y="415.10849056603774" type="curve" smooth="yes"/>
      <point x="112.03301886792453" y="415.10849056603774"/>
      <point x="132.5754716981132" y="416.79245283018867"/>
      <point x="144.31132075471697" y="419.9150943396226" type="curve"/>
      <point x="211.83962264150946" y="493.4245283018868"/>
      <point x="315.38679245283015" y="582.5141509433962"/>
      <point x="424.14150943396226" y="652.7594339622641" type="curve"/>
      <point x="362.6320754716981" y="632.8820754716982" type="line"/>
      <point x="434.1415094339622" y="632.8820754716982" type="line"/>
      <point x="383.50943396226415" y="652.7594339622641" type="line"/>
      <point x="454.50943396226415" y="583.8301886792452"/>
      <point x="506.54716981132077" y="504.7924528301887"/>
      <point x="541.1462264150944" y="419.9150943396226" type="curve"/>
      <point x="552.1981132075472" y="417.2311320754717"/>
      <point x="567.7405660377359" y="415.10849056603774"/>
      <point x="584.5283018867925" y="415.10849056603774" type="curve" smooth="yes"/>
      <point x="607.122641509434" y="415.10849056603774"/>
      <point x="621.2971698113208" y="422.79245283018867"/>
      <point x="626.5424528301888" y="440.6509433962264" type="curve" smooth="yes"/>
      <point x="632.3490566037736" y="460.6320754716981"/>
      <point x="624.9811320754718" y="484.9811320754717"/>
      <point x="613.2971698113208" y="508.7169811320755" type="curve" smooth="yes"/>
      <point x="583.9622641509434" y="561.8584905660377"/>
      <point x="535.6792452830189" y="629.6509433962264"/>
    </contour>
    <contour>
      <point x="278.6886792452831" y="368.74056603773585" type="curve" smooth="yes"/>
      <point x="265.23113207547175" y="318.59433962264154" type="line" smooth="yes"/>
      <point x="246.28301886792454" y="249.66037735849056"/>
      <point x="239.96698113207546" y="212.66037735849056"/>
      <point x="235.89622641509433" y="169.76415094339623" type="curve"/>
      <point x="236.6509433962264" y="152.36320754716982"/>
      <point x="245.70283018867926" y="145.62735849056602"/>
      <point x="261.6132075471698" y="145.62735849056602" type="curve" smooth="yes"/>
      <point x="275.6132075471698" y="145.62735849056602"/>
      <point x="285.17452830188677" y="148.82075471698113"/>
      <point x="293.4198113207547" y="157.08490566037736" type="curve" smooth="yes"/>
      <point x="319.6462264150944" y="200.33018867924525"/>
      <point x="338.872641509434" y="248.29245283018867"/>
      <point x="358.38207547169816" y="317.7169811320755" type="curve" smooth="yes"/>
      <point x="371.40094339622647" y="367.8632075471698" type="line" smooth="yes"/>
      <point x="390.22641509433964" y="435.67452830188677"/>
      <point x="395.4198113207547" y="476.0424528301887"/>
      <point x="398.49056603773585" y="515.0094339622641" type="curve"/>
      <point x="397.17452830188677" y="529.6037735849056"/>
      <point x="390.9292452830188" y="536.3396226415094"/>
      <point x="373.89622641509436" y="536.3396226415094" type="curve" smooth="yes"/>
      <point x="359.89622641509436" y="536.3396226415094"/>
      <point x="351.3349056603774" y="533.1462264150944"/>
      <point x="342.52830188679246" y="524.8820754716982" type="curve" smooth="yes"/>
      <point x="316.05660377358487" y="482.26886792452825"/>
      <point x="298.3207547169812" y="439.8490566037736"/>
    </contour>
    <contour>
      <point x="156.95283018867923" y="14.419811320754718" type="curve" smooth="yes"/>
      <point x="183.3018867924528" y="-11.051886792452832"/>
      <point x="202.33490566037733" y="-14.61320754716981"/>
      <point x="240.6839622641509" y="-14.61320754716981" type="curve" smooth="yes"/>
      <point x="250.6132075471698" y="-14.61320754716981"/>
      <point x="259.66509433962267" y="-14.61320754716981"/>
      <point x="268.2783018867925" y="-14.61320754716981" type="curve"/>
      <point x="371.22641509433964" y="43.405660377358494"/>
      <point x="463.0518867924528" y="116.79245283018868"/>
      <point x="523.8066037735849" y="175.0377358490566" type="curve" smooth="yes"/>
      <point x="552.4905660377359" y="202.96698113207546"/>
      <point x="572.6650943396227" y="228.26415094339623"/>
      <point x="578.4716981132076" y="250.8066037735849" type="curve" smooth="yes"/>
      <point x="583.1556603773586" y="270.7877358490566"/>
      <point x="573.4716981132075" y="280.27830188679246"/>
      <point x="538.3867924528302" y="280.27830188679246" type="curve" smooth="yes"/>
      <point x="525.5283018867924" y="280.27830188679246"/>
      <point x="506.74056603773585" y="278.15566037735846"/>
      <point x="494.566037735849" y="275.0330188679245" type="curve"/>
      <point x="424.6179245283019" y="194.91037735849056"/>
      <point x="320.8584905660377" y="108.04716981132076"/>
      <point x="214.73584905660377" y="43.50471698113208" type="curve"/>
      <point x="276.12264150943395" y="62.50471698113208" type="line"/>
      <point x="204.61320754716982" y="62.50471698113208" type="line"/>
      <point x="255.36792452830187" y="43.50471698113208" type="line"/>
      <point x="175.2264150943396" y="114.18867924528303"/>
      <point x="126.13679245283019" y="191.1556603773585"/>
      <point x="92.1179245283019" y="275.0330188679245" type="curve"/>
      <point x="81.9433962264151" y="278.15566037735846"/>
      <point x="69.89150943396227" y="280.27830188679246"/>
      <point x="57.03301886792453" y="280.27830188679246" type="curve" smooth="yes"/>
      <point x="30.754716981132077" y="280.27830188679246"/>
      <point x="17.89622641509434" y="273.59433962264154"/>
      <point x="13.528301886792452" y="255.05188679245282" type="curve" smooth="yes"/>
      <point x="9.283018867924525" y="235.43867924528303"/>
      <point x="14.40566037735849" y="208.6509433962264"/>
      <point x="28.018867924528294" y="182.9858490566038" type="curve" smooth="yes"/>
      <point x="55.40566037735848" y="132.40566037735852"/>
      <point x="102.05660377358491" y="63.49056603773585"/>
    </contour>
  </outline>
</glyph>
<glyph name="arrowNW" format="2">
  <advance width="600.0"/>
  <unicode hex="2196"/>
  <outline>
    <contour>
      <point x="264.8349056603774" y="469.9669811320755" type="curve"/>
      <point x="258.4669811320755" y="466.2830188679245"/>
      <point x="250.97641509433964" y="461.5990566037736"/>
      <point x="243.04716981132074" y="452.54716981132077" type="curve" smooth="yes"/>
      <point x="231.24056603773585" y="439.61792452830184"/>
      <point x="224.55660377358487" y="423.44339622641513"/>
      <point x="234.11792452830187" y="403.4622641509434" type="curve" smooth="yes"/>
      <point x="262.1556603773585" y="357.68867924528297"/>
      <point x="298.17452830188677" y="311.79245283018867"/>
      <point x="352.24528301886795" y="235.01886792452828" type="curve" smooth="yes"/>
      <point x="403.17452830188677" y="163.4575471698113"/>
      <point x="429.36792452830184" y="113.82547169811319"/>
      <point x="439.3679245283019" y="65.45754716981132" type="curve"/>
      <point x="457.7877358490567" y="68.38679245283018"/>
      <point x="480.0141509433962" y="75.56132075471699"/>
      <point x="495.75" y="87.61320754716981" type="curve" smooth="yes"/>
      <point x="529.2735849056603" y="113.08490566037736"/>
      <point x="533.7122641509434" y="149.16981132075472"/>
      <point x="516.6084905660377" y="183.83490566037736" type="curve" smooth="yes"/>
      <point x="501.31132075471703" y="218.5707547169811"/>
      <point x="468.8726415094339" y="264.0283018867925"/>
      <point x="423.92452830188677" y="315.6792452830189" type="curve" smooth="yes"/>
      <point x="377.9575471698114" y="369.10377358490564"/>
      <point x="330.46698113207555" y="416.122641509434"/>
    </contour>
    <contour>
      <point x="158.78773584905656" y="614.6981132075472" type="curve"/>
      <point x="150.03301886792454" y="607.382075471698" type="line" smooth="yes"/>
      <point x="115.92924528301886" y="578.8396226415094"/>
      <point x="102.50943396226414" y="560.6132075471697"/>
      <point x="90.89622641509433" y="515.9150943396227" type="curve" smooth="yes"/>
      <point x="58.490566037735846" y="404.83962264150944"/>
      <point x="41.66509433962264" y="277.6792452830189"/>
      <point x="41.9622641509434" y="202.64150943396226" type="curve" smooth="yes"/>
      <point x="44.45283018867925" y="151.1698113207547"/>
      <point x="56.18867924528302" y="136.16981132075475"/>
      <point x="76.80188679245283" y="135.04716981132077" type="curve" smooth="yes"/>
      <point x="96.78301886792454" y="133.9245283018868"/>
      <point x="123.50000000000001" y="143.9764150943396"/>
      <point x="156.02358490566036" y="180.42924528301884" type="curve"/>
      <point x="139.30660377358487" y="286.66037735849056"/>
      <point x="148.02830188679243" y="413.96226415094344"/>
      <point x="193.60849056603772" y="552.5283018867925" type="curve"/>
      <point x="159.04716981132074" y="505.4764150943396" type="line"/>
      <point x="219.80188679245282" y="551.7216981132076" type="line"/>
      <point x="163.11792452830187" y="527.5990566037735" type="line"/>
      <point x="277.2264150943396" y="536.0377358490565"/>
      <point x="429.75943396226415" y="516.5990566037735"/>
      <point x="536.745283018868" y="471.3018867924529" type="curve"/>
      <point x="573.7594339622642" y="491.89622641509436"/>
      <point x="593.4245283018869" y="515.6132075471697"/>
      <point x="596.9858490566038" y="536.5943396226415" type="curve" smooth="yes"/>
      <point x="600.9858490566038" y="558.2075471698113"/>
      <point x="591.7405660377359" y="572.8915094339624"/>
      <point x="544.5141509433962" y="585.9433962264151" type="curve" smooth="yes"/>
      <point x="443.5330188679245" y="613.6792452830188"/>
      <point x="282.2641509433962" y="627.3820754716982"/>
    </contour>
  </outline>
</glyph>
<glyph name="summation" format="2">
  <advance width="600.0"/>
  <unicode hex="2211"/>
  <outline>
    <contour>
      <point x="159.87735849056602" y="700.0" type="line"/>
      <point x="152.8254716981132" y="687.5801886792452"/>
      <point x="146.58018867924525" y="673.4056603773585"/>
      <point x="142.89622641509433" y="652.6179245283018" type="curve" smooth="yes"/>
      <point x="135.65094339622638" y="609.7264150943396"/>
      <point x="153.75471698113205" y="593.8679245283018"/>
      <point x="194.1556603773585" y="593.8679245283018" type="curve" smooth="yes"/>
      <point x="620.3537735849058" y="593.8679245283018" type="line"/>
      <point x="630.5283018867924" y="604.0424528301887"/>
      <point x="639.5801886792452" y="617.2169811320755"/>
      <point x="645.5094339622641" y="638.9339622641509" type="curve" smooth="yes"/>
      <point x="655.8773584905659" y="677.0896226415094"/>
      <point x="641.3349056603773" y="700.0"/>
      <point x="605.4952830188679" y="700.0" type="curve"/>
    </contour>
    <contour>
      <point x="446.73584905660374" y="-157.35377358490567" type="curve" smooth="yes"/>
      <point x="456.3490566037736" y="-118.09433962264151"/>
      <point x="444.17452830188677" y="-93.86792452830188"/>
      <point x="399.8443396226415" y="-93.86792452830188" type="curve" smooth="yes"/>
      <point x="119.97169811320757" y="-93.86792452830188" type="line"/>
      <point x="118.41037735849058" y="-87.8679245283019" type="line"/>
      <point x="255.2547169811321" y="-1.6556603773584908"/>
      <point x="354.9764150943396" y="85.47169811320757"/>
      <point x="431.433962264151" y="185.45754716981133" type="curve" smooth="yes"/>
      <point x="446.4339622641509" y="204.21226415094338"/>
      <point x="454.5566037735849" y="221.4575471698113"/>
      <point x="458.24056603773585" y="239.63207547169813" type="curve" smooth="yes"/>
      <point x="460.24056603773585" y="249.1933962264151"/>
      <point x="460.9245283018868" y="259.683962264151"/>
      <point x="458.9245283018868" y="267.9292452830188" type="curve"/>
      <point x="387.72641509433964" y="334.54716981132077"/>
      <point x="339.33962264150944" y="420.8820754716981"/>
      <point x="319.6037735849057" y="527.5707547169811" type="curve" smooth="yes"/>
      <point x="312.1132075471698" y="563.2547169811321"/>
      <point x="303.938679245283" y="577.061320754717"/>
      <point x="286.5188679245283" y="587.867924528302" type="curve"/>
      <point x="301.37735849056605" y="649.8632075471698" type="line"/>
      <point x="193.36792452830187" y="649.8632075471698" type="line"/>
      <point x="196.50943396226415" y="462.0518867924528"/>
      <point x="249.2830188679245" y="335.683962264151"/>
      <point x="337.7594339622642" y="241.8066037735849" type="curve"/>
      <point x="239.32075471698116" y="116.62735849056602"/>
      <point x="125.4245283018868" y="18.853773584905664"/>
      <point x="-22.63207547169811" y="-81.74528301886792" type="curve"/>
      <point x="-32.31603773584905" y="-94.23584905660377"/>
      <point x="-38.68396226415094" y="-108.53301886792453"/>
      <point x="-41.929245283018865" y="-121.83018867924528" type="curve" smooth="yes"/>
      <point x="-52.54245283018867" y="-168.35377358490567"/>
      <point x="-28.948113207547166" y="-200.0"/>
      <point x="10.62735849056604" y="-200.0" type="curve" smooth="yes"/>
      <point x="426.1933962264151" y="-200.0" type="line"/>
      <point x="434.122641509434" y="-190.63207547169813"/>
      <point x="442.0518867924528" y="-176.6509433962264"/>
    </contour>
  </outline>
</glyph>
<glyph name="squarewhite" format="2">
  <advance width="600.0"/>
  <unicode hex="25A1"/>
  <outline>
    <contour>
      <point x="59.212264150943405" y="611.2264150943396" type="line"/>
      <point x="59.212264150943405" y="156.0" type="line" smooth="yes"/>
      <point x="59.212264150943405" y="121.0"/>
      <point x="66.21226415094341" y="100.0"/>
      <point x="82.21226415094341" y="100.0" type="curve" smooth="yes"/>
      <point x="570.4386792452831" y="100.0" type="line"/>
      <point x="570.4386792452831" y="555.2264150943396" type="line" smooth="yes"/>
      <point x="570.4386792452831" y="590.2264150943396"/>
      <point x="563.4386792452831" y="611.2264150943396"/>
      <point x="547.4386792452831" y="611.2264150943396" type="curve" smooth="yes"/>
    </contour>
    <contour>
      <point x="114.05188679245285" y="544.3867924528302" type="curve"/>
      <point x="508.59905660377365" y="544.3867924528302" type="line"/>
      <point x="501.59905660377353" y="411.3867924528302"/>
      <point x="502.59905660377353" y="289.83962264150944"/>
      <point x="515.5990566037736" y="166.83962264150944" type="curve"/>
      <point x="121.05188679245285" y="166.83962264150944" type="line"/>
      <point x="128.05188679245282" y="299.83962264150944"/>
      <point x="127.05188679245282" y="421.3867924528302"/>
    </contour>
  </outline>
</glyph>
<glyph name="triangleupwhite" format="2">
  <advance width="600.0"/>
  <unicode hex="25B3"/>
  <outline>
    <contour>
      <point x="248.19339622641508" y="642.0" type="curve"/>
      <point x="118.1933962264151" y="479.0"/>
      <point x="-12.806603773584905" y="185.0"/>
      <point x="-12.806603773584905" y="158.0" type="curve" smooth="yes"/>
      <point x="-12.806603773584905" y="138.0"/>
      <point x="-0.19339622641509369" y="118.38679245283019"/>
      <point x="10.806603773584905" y="112.38679245283019" type="curve"/>
      <point x="168.8066037735849" y="98.38679245283019"/>
      <point x="354.80660377358487" y="98.38679245283019"/>
      <point x="505.80660377358487" y="112.38679245283019" type="curve" smooth="yes"/>
      <point x="526.8066037735849" y="114.38679245283019"/>
      <point x="544.4198113207548" y="118.38679245283019"/>
      <point x="552.4198113207548" y="125.38679245283019" type="curve" smooth="yes"/>
      <point x="561.4198113207548" y="133.38679245283018"/>
      <point x="565.4198113207548" y="150.0"/>
      <point x="568.4198113207548" y="171.0" type="curve"/>
      <point x="513.4198113207548" y="323.0"/>
      <point x="432.41981132075466" y="469.0"/>
      <point x="361.41981132075466" y="581.0" type="curve" smooth="yes"/>
      <point x="337.41981132075466" y="618.0"/>
      <point x="324.41981132075466" y="627.0"/>
      <point x="315.41981132075466" y="634.0" type="curve" smooth="yes"/>
      <point x="308.41981132075466" y="639.0"/>
      <point x="298.41981132075466" y="642.0"/>
      <point x="286.41981132075466" y="642.0" type="curve" smooth="yes"/>
      <point x="271.41981132075466" y="642.0"/>
      <point x="254.1933962264151" y="642.0"/>
    </contour>
    <contour>
      <point x="533.8066037735849" y="176.22641509433961" type="line"/>
      <point x="375.80660377358487" y="159.22641509433961"/>
      <point x="170.8066037735849" y="162.22641509433961"/>
      <point x="17.806603773584904" y="174.22641509433961" type="curve"/>
      <point x="72.20754716981133" y="157.41981132075472" type="line"/>
      <point x="45.207547169811335" y="193.41981132075472" type="line"/>
      <point x="45.033018867924525" y="143.0" type="line"/>
      <point x="95.03301886792454" y="284.0"/>
      <point x="208.0330188679245" y="488.0"/>
      <point x="302.0330188679245" y="616.0" type="curve"/>
      <point x="257.80660377358487" y="580.5990566037735" type="line"/>
      <point x="304.80660377358487" y="580.5990566037735" type="line"/>
      <point x="258.5801886792453" y="616.0" type="line"/>
      <point x="355.5801886792452" y="486.0"/>
      <point x="458.5801886792452" y="292.0"/>
      <point x="508.5801886792452" y="145.0" type="curve"/>
      <point x="508.65094339622635" y="196.78773584905662" type="line"/>
      <point x="481.65094339622635" y="153.78773584905662" type="line"/>
    </contour>
  </outline>
</glyph>
<glyph name="trianglerightwhite" format="2">
  <advance width="600.0"/>
  <unicode hex="25B7"/>
  <outline>
    <contour>
      <point x="605.8962264150944" y="395.6132075471698" type="curve"/>
      <point x="442.89622641509436" y="525.6132075471698"/>
      <point x="157.89622641509433" y="653.6132075471698"/>
      <point x="130.89622641509433" y="653.6132075471698" type="curve" smooth="yes"/>
      <point x="110.89622641509433" y="653.6132075471698"/>
      <point x="91.28301886792453" y="641.0"/>
      <point x="85.28301886792453" y="630.0" type="curve"/>
      <point x="71.28301886792453" y="472.0"/>
      <point x="71.28301886792453" y="286.0"/>
      <point x="85.28301886792453" y="135.0" type="curve" smooth="yes"/>
      <point x="87.28301886792453" y="114.0"/>
      <point x="91.28301886792453" y="96.38679245283019"/>
      <point x="98.28301886792453" y="88.38679245283019" type="curve" smooth="yes"/>
      <point x="106.28301886792453" y="79.38679245283019"/>
      <point x="122.89622641509433" y="75.38679245283019"/>
      <point x="143.89622641509433" y="72.38679245283019" type="curve"/>
      <point x="285.89622641509436" y="125.38679245283019"/>
      <point x="432.89622641509436" y="210.38679245283018"/>
      <point x="544.8962264150944" y="286.3867924528302" type="curve" smooth="yes"/>
      <point x="581.8962264150944" y="311.3867924528302"/>
      <point x="590.8962264150944" y="323.3867924528302"/>
      <point x="597.8962264150944" y="332.3867924528302" type="curve" smooth="yes"/>
      <point x="602.8962264150944" y="339.3867924528302"/>
      <point x="605.8962264150944" y="349.3867924528302"/>
      <point x="605.8962264150944" y="361.3867924528302" type="curve" smooth="yes"/>
      <point x="605.8962264150944" y="376.3867924528302"/>
      <point x="605.8962264150944" y="389.6132075471698"/>
    </contour>
    <contour>
      <point x="147.99999999999997" y="107.0" type="line"/>
      <point x="130.99999999999997" y="265.0"/>
      <point x="133.99999999999997" y="470.0"/>
      <point x="145.99999999999997" y="623.0" type="curve"/>
      <point x="129.75471698113208" y="569.1603773584906" type="line"/>
      <point x="165.75471698113208" y="596.1603773584906" type="line"/>
      <point x="114.77358490566037" y="595.7735849056604" type="line"/>
      <point x="255.7735849056604" y="545.7735849056604"/>
      <point x="451.7735849056604" y="434.77358490566036"/>
      <point x="579.7735849056603" y="340.77358490566036" type="curve"/>
      <point x="544.9339622641508" y="385.0" type="line"/>
      <point x="544.9339622641508" y="338.0" type="line"/>
      <point x="579.7735849056603" y="384.22641509433964" type="line"/>
      <point x="449.7735849056604" y="287.22641509433964"/>
      <point x="263.7735849056604" y="182.22641509433961"/>
      <point x="116.77358490566037" y="132.22641509433961" type="curve"/>
      <point x="169.68396226415095" y="131.5943396226415" type="line"/>
      <point x="126.68396226415095" y="158.5943396226415" type="line"/>
    </contour>
  </outline>
</glyph>
<glyph name="gmtr:diamondwhite" format="2">
  <advance width="600.0"/>
  <unicode hex="25C7"/>
  <outline>
    <contour>
      <point x="616.0518867924529" y="351.0" type="curve" smooth="yes"/>
      <point x="616.0518867924529" y="372.0"/>
      <point x="605.0518867924529" y="386.0"/>
      <point x="581.0518867924529" y="417.0" type="curve" smooth="yes"/>
      <point x="526.0518867924529" y="486.0"/>
      <point x="443.438679245283" y="568.6132075471698"/>
      <point x="373.438679245283" y="628.6132075471698" type="curve" smooth="yes"/>
      <point x="350.438679245283" y="647.6132075471698"/>
      <point x="338.438679245283" y="651.6132075471698"/>
      <point x="320.438679245283" y="651.6132075471698" type="curve" smooth="yes"/>
      <point x="308.438679245283" y="651.6132075471698"/>
      <point x="301.438679245283" y="650.6132075471698"/>
      <point x="290.438679245283" y="646.6132075471698" type="curve"/>
      <point x="205.438679245283" y="576.6132075471698"/>
      <point x="104.82547169811322" y="467.0"/>
      <point x="60.825471698113205" y="410.0" type="curve" smooth="yes"/>
      <point x="29.82547169811321" y="370.0"/>
      <point x="24.82547169811321" y="360.0"/>
      <point x="24.82547169811321" y="343.0" type="curve" smooth="yes"/>
      <point x="24.82547169811321" y="330.0"/>
      <point x="34.825471698113205" y="317.0"/>
      <point x="58.825471698113205" y="286.0" type="curve" smooth="yes"/>
      <point x="114.82547169811322" y="214.0"/>
      <point x="200.438679245283" y="130.38679245283018"/>
      <point x="270.438679245283" y="72.38679245283019" type="curve" smooth="yes"/>
      <point x="293.438679245283" y="53.386792452830186"/>
      <point x="309.438679245283" y="49.386792452830186"/>
      <point x="323.438679245283" y="49.386792452830186" type="curve" smooth="yes"/>
      <point x="333.438679245283" y="49.386792452830186"/>
      <point x="344.438679245283" y="50.386792452830186"/>
      <point x="353.438679245283" y="54.386792452830186" type="curve"/>
      <point x="392.438679245283" y="84.38679245283019"/>
      <point x="454.0518867924528" y="144.0"/>
      <point x="507.0518867924528" y="199.0" type="curve" smooth="yes"/>
      <point x="589.0518867924529" y="284.0"/>
      <point x="616.0518867924529" y="333.0"/>
    </contour>
    <contour>
      <point x="82.66509433962266" y="351.0" type="curve"/>
      <point x="136.54245283018867" y="417.438679245283"/>
      <point x="237.22641509433961" y="527.7547169811321"/>
      <point x="352.1037735849057" y="621.1933962264151" type="curve"/>
      <point x="287.0" y="590.5283018867925" type="line"/>
      <point x="351.87735849056605" y="590.5283018867925" type="line"/>
      <point x="289.77358490566036" y="620.1933962264151" type="line"/>
      <point x="404.08962264150944" y="526.7547169811321"/>
      <point x="502.3349056603774" y="429.87735849056605"/>
      <point x="556.2122641509435" y="351.0" type="curve"/>
      <point x="503.3349056603774" y="274.12264150943395"/>
      <point x="408.08962264150944" y="171.24528301886792"/>
      <point x="290.77358490566036" y="78.80660377358491" type="curve"/>
      <point x="354.87735849056605" y="107.91037735849056" type="line"/>
      <point x="289.0" y="107.91037735849056" type="line"/>
      <point x="353.1037735849057" y="78.80660377358491" type="line"/>
      <point x="240.22641509433961" y="169.24528301886792"/>
      <point x="137.54245283018867" y="269.12264150943395"/>
    </contour>
  </outline>
</glyph>
<glyph name="heartwhite" format="2">
  <advance width="600.0"/>
  <unicode hex="2661"/>
  <outline>
    <contour>
      <point x="207.6320754716981" y="651.6132075471698" type="curve" smooth="yes"/>
      <point x="112.01886792452831" y="651.6132075471698"/>
      <point x="52.0188679245283" y="574.6132075471698"/>
      <point x="52.0188679245283" y="456.0" type="curve" smooth="yes"/>
      <point x="52.0188679245283" y="439.0" type="line" smooth="yes"/>
      <point x="52.0188679245283" y="314.0"/>
      <point x="142.01886792452828" y="179.38679245283018"/>
      <point x="260.01886792452825" y="111.38679245283019" type="curve" smooth="yes"/>
      <point x="302.0188679245283" y="87.38679245283019"/>
      <point x="319.0188679245283" y="79.38679245283019"/>
      <point x="340.0188679245283" y="79.38679245283019" type="curve" smooth="yes"/>
      <point x="353.0188679245283" y="79.38679245283019"/>
      <point x="372.2452830188679" y="80.38679245283019"/>
      <point x="386.2452830188679" y="83.38679245283019" type="curve"/>
      <point x="498.2452830188679" y="144.38679245283018"/>
      <point x="633.245283018868" y="290.0"/>
      <point x="633.245283018868" y="443.0" type="curve" smooth="yes"/>
      <point x="633.245283018868" y="456.0" type="line" smooth="yes"/>
      <point x="633.245283018868" y="589.6132075471698"/>
      <point x="565.245283018868" y="651.6132075471698"/>
      <point x="479.6320754716981" y="651.6132075471698" type="curve" smooth="yes"/>
      <point x="399.6320754716981" y="651.6132075471698"/>
      <point x="355.6320754716981" y="598.6132075471698"/>
      <point x="338.6320754716981" y="507.6132075471698" type="curve"/>
      <point x="350.6320754716981" y="507.6132075471698" type="line"/>
      <point x="334.6320754716981" y="599.6132075471698"/>
      <point x="285.6320754716981" y="651.6132075471698"/>
    </contour>
    <contour>
      <point x="368.1933962264151" y="119.9811320754717" type="line"/>
      <point x="214.94811320754715" y="185.6132075471698"/>
      <point x="112.36792452830188" y="302.0707547169811"/>
      <point x="112.36792452830188" y="451.85849056603774" type="curve" smooth="yes"/>
      <point x="112.36792452830188" y="463.85849056603774" type="line" smooth="yes"/>
      <point x="112.36792452830188" y="545.4905660377359"/>
      <point x="147.36792452830187" y="591.7028301886793"/>
      <point x="201.58018867924528" y="591.7028301886793" type="curve" smooth="yes"/>
      <point x="250.8962264150943" y="591.7028301886793"/>
      <point x="280.2122641509434" y="562.0188679245283"/>
      <point x="301.8443396226415" y="499.0707547169811" type="curve" smooth="yes"/>
      <point x="308.2830188679245" y="479.50943396226415"/>
      <point x="313.8443396226415" y="468.50943396226415"/>
      <point x="328.4056603773585" y="468.50943396226415" type="curve" smooth="yes"/>
      <point x="378.4198113207547" y="468.50943396226415" type="line"/>
      <point x="395.6132075471698" y="550.0188679245283"/>
      <point x="428.3679245283019" y="591.7028301886793"/>
      <point x="478.438679245283" y="591.7028301886793" type="curve" smooth="yes"/>
      <point x="536.1415094339624" y="591.7028301886793"/>
      <point x="572.8962264150945" y="550.877358490566"/>
      <point x="572.8962264150945" y="461.85849056603774" type="curve" smooth="yes"/>
      <point x="572.8962264150945" y="449.85849056603774" type="line" smooth="yes"/>
      <point x="572.8962264150945" y="296.87735849056605"/>
      <point x="448.87735849056605" y="174.54245283018867"/>
      <point x="322.6320754716981" y="119.9811320754717" type="curve"/>
      <point x="388.1933962264151" y="133.9811320754717" type="line"/>
      <point x="313.0707547169811" y="133.9811320754717" type="line"/>
    </contour>
  </outline>
</glyph>
<glyph name="L.sans" format="2">
  <advance width="600.0"/>
  <anchor x="252.49056603773582" y="711.0" name="top"/>
  <anchor x="243.2641509433962" y="-1.0" name="bottom"/>
  <anchor x="479.3867924528301" y="402.8066037735849" name="dot"/>
  <anchor x="516.5754716981131" y="599.2122641509434" name="caronslovak"/>
  <anchor x="168.71698113207546" y="367.561320754717" name="slash"/>
  <outline>
    <contour>
      <point x="159.1320754716981" y="0.0" type="curve" smooth="yes"/>
      <point x="458.40094339622635" y="0.0" type="line"/>
      <point x="464.64622641509425" y="11.613207547169813"/>
      <point x="469.4528301886792" y="23.787735849056602"/>
      <point x="473.2594339622641" y="37.76886792452831" type="curve" smooth="yes"/>
      <point x="483.43396226415086" y="82.34433962264151"/>
      <point x="467.01415094339626" y="102.44811320754717"/>
      <point x="434.49056603773585" y="102.44811320754717" type="curve" smooth="yes"/>
      <point x="151.76415094339617" y="102.44811320754717" type="line"/>
      <point x="163.93867924528297" y="257.25943396226415"/>
      <point x="258.1509433962264" y="418.3867924528302"/>
      <point x="287.4150943396226" y="583.2311320754717" type="curve" smooth="yes"/>
      <point x="301.1698113207547" y="662.6698113207549"/>
      <point x="289.87264150943395" y="710.0"/>
      <point x="241.1037735849056" y="710.0" type="curve" smooth="yes"/>
      <point x="220.75471698113202" y="710.0"/>
      <point x="203.96698113207543" y="707.316037735849"/>
      <point x="186.8632075471698" y="703.0707547169811" type="curve"/>
      <point x="190.79245283018867" y="667.438679245283"/>
      <point x="192.47641509433961" y="637.5283018867924"/>
      <point x="182.28301886792454" y="589.1933962264151" type="curve" smooth="yes"/>
      <point x="149.33490566037733" y="433.54245283018867"/>
      <point x="82.12264150943396" y="309.5754716981132"/>
      <point x="53.070754716981135" y="156.16981132075472" type="curve" smooth="yes"/>
      <point x="36.45754716981133" y="72.18867924528303"/>
      <point x="81.82075471698114" y="0.0"/>
    </contour>
  </outline>
</glyph>
<glyph name="Z.sans" format="2">
  <advance width="600.0"/>
  <anchor x="410.87735849056605" y="711.0" name="top"/>
  <anchor x="246.2641509433962" y="0.0" name="bottom"/>
  <outline>
    <contour>
      <point x="479.43867924528297" y="0.0" type="line"/>
      <point x="482.5613207547169" y="6.683962264150942"/>
      <point x="485.68396226415086" y="14.92924528301887"/>
      <point x="487.8066037735848" y="24.41981132075471" type="curve" smooth="yes"/>
      <point x="499.1037735849056" y="70.16981132075472"/>
      <point x="478.6320754716981" y="105.25471698113208"/>
      <point x="427.49528301886784" y="105.25471698113208" type="curve" smooth="yes"/>
      <point x="313.84905660377353" y="105.25471698113208" type="line" smooth="yes"/>
      <point x="263.65566037735846" y="105.25471698113208"/>
      <point x="205.6745283018868" y="102.69339622641509"/>
      <point x="150.48113207547172" y="99.00943396226415" type="curve"/>
      <point x="151.04245283018867" y="105.44811320754718" type="line"/>
      <point x="209.62264150943395" y="143.9575471698113"/>
      <point x="256.92452830188677" y="177.99528301886792"/>
      <point x="312.99528301886795" y="224.94339622641508" type="curve" smooth="yes"/>
      <point x="503.61964829126885" y="385.02329739358066"/>
      <point x="614.5990566037735" y="532.8349056603773"/>
      <point x="628.7216981132076" y="586.7641509433962" type="curve"/>
      <point x="630.8443396226415" y="593.5707547169811" type="line"/>
      <point x="648.7547169811321" y="649.3726415094341"/>
      <point x="613.7735849056604" y="700.0"/>
      <point x="568.0377358490566" y="700.0" type="curve" smooth="yes"/>
      <point x="188.43867924528303" y="700.0" type="line"/>
      <point x="184.1933962264151" y="690.8254716981132"/>
      <point x="178.82547169811323" y="676.8443396226414"/>
      <point x="175.14150943396228" y="662.9858490566037" type="curve" smooth="yes"/>
      <point x="164.52830188679246" y="620.9716981132076"/>
      <point x="175.75471698113208" y="597.5518867924528"/>
      <point x="222.3820754716981" y="597.5518867924528" type="curve" smooth="yes"/>
      <point x="326.3962264150943" y="597.5518867924528" type="line" smooth="yes"/>
      <point x="390.0801886792453" y="597.5518867924528"/>
      <point x="452.8160377358491" y="599.3584905660377"/>
      <point x="517.0801886792453" y="605.1650943396227" type="curve"/>
      <point x="517.8349056603774" y="599.6037735849058" type="line"/>
      <point x="487.90566037735846" y="551.2169811320755"/>
      <point x="456.95754716981133" y="506.93396226415103"/>
      <point x="414.8349056603774" y="457.3018867924529" type="curve" smooth="yes"/>
      <point x="307.37735849056605" y="326.5613207547169"/>
      <point x="173.9858490566038" y="212.1179245283019"/>
      <point x="12.613207547169807" y="100.51886792452831" type="curve"/>
      <point x="9.61320754716981" y="87.7122641509434" type="line" smooth="yes"/>
      <point x="-4.245283018867928" y="35.155660377358494"/>
      <point x="14.419811320754715" y="0.0"/>
      <point x="78.85377358490567" y="0.0" type="curve" smooth="yes"/>
    </contour>
  </outline>
</glyph>
<glyph name="ampersand_ampersand_ampersand.code" format="2">
  <advance width="1800.0"/>
  <outline>
    <contour>
      <point x="386.8915094339622" y="356.7358490566038" type="curve" smooth="yes"/>
      <point x="371.94339622641513" y="415.50943396226415"/>
      <point x="371.94339622641513" y="474.2122641509434"/>
      <point x="381.6981132075472" y="517.1603773584906" type="curve" smooth="yes"/>
      <point x="387.8915094339623" y="542.6179245283018"/>
      <point x="394.83962264150944" y="563.882075471698"/>
      <point x="411.17452830188677" y="584.1462264150944" type="curve"/>
      <point x="436.316037735849" y="597.4811320754717"/>
      <point x="463.96698113207543" y="604.3066037735849"/>
      <point x="508.37264150943406" y="604.3066037735849" type="curve" smooth="yes"/>
      <point x="560.9339622641509" y="604.3066037735849"/>
      <point x="610.1603773584907" y="591.6745283018868"/>
      <point x="642.5801886792452" y="571.3584905660377" type="curve"/>
      <point x="648.5801886792452" y="571.3584905660377" type="line"/>
      <point x="659.6320754716983" y="581.8490566037736"/>
      <point x="668.4386792452831" y="596.3396226415094"/>
      <point x="672.683962264151" y="614.4433962264151" type="curve" smooth="yes"/>
      <point x="679.0518867924528" y="639.6698113207548"/>
      <point x="675.3679245283018" y="661.3349056603774"/>
      <point x="659.0707547169811" y="676.5094339622642" type="curve" smooth="yes"/>
      <point x="638.0188679245283" y="696.438679245283"/>
      <point x="597.5283018867925" y="710.0"/>
      <point x="538.9481132075471" y="710.0" type="curve" smooth="yes"/>
      <point x="394.6179245283019" y="710.0"/>
      <point x="301.8820754716981" y="624.9150943396227"/>
      <point x="283.0566037735849" y="533.4575471698114" type="curve" smooth="yes"/>
      <point x="282.05660377358487" y="528.3349056603774" type="line" smooth="yes"/>
      <point x="270.98584905660374" y="473.5094339622642"/>
      <point x="270.688679245283" y="405.19339622641513"/>
      <point x="295.3018867924529" y="322.2830188679245" type="curve" smooth="yes"/>
      <point x="317.1273584905661" y="245.9103773584906"/>
      <point x="359.1462264150943" y="155.64622641509436"/>
      <point x="409.33962264150944" y="88.69811320754717" type="curve" smooth="yes"/>
      <point x="464.74056603773585" y="14.561320754716983"/>
      <point x="513.933962264151" y="-8.877358490566039"/>
      <point x="570.5471698113207" y="-8.877358490566039" type="curve" smooth="yes"/>
      <point x="603.8443396226415" y="-8.877358490566039"/>
      <point x="626.7735849056603" y="-1.9481132075471694"/>
      <point x="644.2641509433961" y="10.665094339622643" type="curve" smooth="yes"/>
      <point x="662.1933962264152" y="23.278301886792452"/>
      <point x="677.8066037735849" y="44.50471698113208"/>
      <point x="683.8584905660377" y="75.78301886792454" type="curve" smooth="yes"/>
      <point x="687.6650943396227" y="95.32547169811322"/>
      <point x="687.2264150943397" y="113.18396226415095"/>
      <point x="684.2264150943397" y="126.2358490566038" type="curve"/>
      <point x="678.2264150943397" y="126.2358490566038" type="line"/>
      <point x="648.929245283019" y="107.42924528301887"/>
      <point x="626.8254716981133" y="101.74528301886792"/>
      <point x="590.8962264150944" y="101.74528301886792" type="curve" smooth="yes"/>
      <point x="549.5801886792452" y="101.74528301886792"/>
      <point x="512.4575471698114" y="118.55188679245283"/>
      <point x="479.0896226415094" y="161.79716981132077" type="curve" smooth="yes"/>
      <point x="430.50943396226415" y="224.76415094339623"/>
      <point x="404.27830188679246" y="286.20754716981133"/>
    </contour>
    <contour>
      <point x="243.66981132075475" y="-9.43867924528302" type="curve" smooth="yes"/>
      <point x="316.37264150943395" y="-10.0"/>
      <point x="372.49528301886795" y="22.92924528301887"/>
      <point x="409.4433962264151" y="82.10377358490567" type="curve"/>
      <point x="447.79245283018867" y="82.10377358490567" type="line"/>
      <point x="413.37264150943395" y="152.24056603773585" type="line"/>
      <point x="371.1084905660377" y="107.7122641509434"/>
      <point x="336.6509433962264" y="84.83490566037736"/>
      <point x="280.2452830188679" y="84.83490566037736" type="curve" smooth="yes"/>
      <point x="221.89150943396226" y="84.83490566037736"/>
      <point x="196.75" y="122.78301886792454"/>
      <point x="212.18867924528303" y="183.45283018867923" type="curve" smooth="yes"/>
      <point x="213.75" y="189.01415094339623" type="line" smooth="yes"/>
      <point x="227.31132075471697" y="240.78773584905662"/>
      <point x="277.91037735849056" y="279.12264150943395"/>
      <point x="333.5990566037736" y="288.33490566037733" type="curve"/>
      <point x="298.5660377358491" y="360.5235849056604" type="line"/>
      <point x="287.25" y="331.1745283018868" type="line"/>
      <point x="197.19811320754718" y="313.1037735849057"/>
      <point x="126.17924528301886" y="258.0518867924528"/>
      <point x="110.30188679245282" y="170.49056603773585" type="curve" smooth="yes"/>
      <point x="109.3018867924528" y="164.92924528301887" type="line" smooth="yes"/>
      <point x="90.42452830188678" y="61.31603773584906"/>
      <point x="144.91509433962264" y="-8.877358490566039"/>
    </contour>
    <contour>
      <point x="480.85849056603774" y="141.3443396226415" type="line"/>
      <point x="512.9999999999999" y="269.9858490566038"/>
      <point x="551.4575471698114" y="316.5660377358491"/>
      <point x="628.3349056603774" y="316.5660377358491" type="curve" smooth="yes"/>
      <point x="689.0377358490566" y="316.5660377358491"/>
      <point x="749.5471698113207" y="293.4764150943396"/>
      <point x="821.1981132075471" y="232.82075471698116" type="curve"/>
      <point x="789.9528301886793" y="348.10377358490564" type="line"/>
      <point x="767.566037735849" y="331.4009433962264" type="line"/>
      <point x="725.372641509434" y="377.64622641509436"/>
      <point x="669.1792452830189" y="411.4198113207547"/>
      <point x="611.0047169811321" y="411.4198113207547" type="curve" smooth="yes"/>
      <point x="604.811320754717" y="411.4198113207547" type="line" smooth="yes"/>
      <point x="517.1603773584906" y="411.4198113207547"/>
      <point x="466.65094339622635" y="338.4339622641509"/>
      <point x="454.4386792452831" y="205.1509433962264" type="curve"/>
      <point x="428.7547169811321" y="205.1509433962264" type="line"/>
    </contour>
    <contour>
      <point x="1379.004716981132" y="86.45283018867923" type="curve" smooth="yes"/>
      <point x="1435.5283018867924" y="14.561320754716983"/>
      <point x="1481.5801886792453" y="-10.0"/>
      <point x="1518.6320754716978" y="-10.0" type="curve" smooth="yes"/>
      <point x="1539.070754716981" y="-10.0"/>
      <point x="1556.3160377358492" y="-5.877358490566038"/>
      <point x="1567.0" y="3.4905660377358494" type="curve" smooth="yes"/>
      <point x="1582.0518867924527" y="16.22641509433962"/>
      <point x="1592.5424528301885" y="32.716981132075475"/>
      <point x="1596.7877358490566" y="62.31132075471698" type="curve" smooth="yes"/>
      <point x="1599.4716981132074" y="82.41509433962264"/>
      <point x="1599.0330188679243" y="102.51886792452831"/>
      <point x="1596.5943396226412" y="115.57075471698114" type="curve"/>
      <point x="1590.5943396226414" y="115.57075471698114" type="line"/>
      <point x="1580.0330188679245" y="105.62264150943396"/>
      <point x="1568.6650943396228" y="101.74528301886792"/>
      <point x="1550.3490566037735" y="101.74528301886792" type="curve" smooth="yes"/>
      <point x="1517.806603773585" y="101.74528301886792"/>
      <point x="1483.754716981132" y="114.67452830188681"/>
      <point x="1447.5094339622642" y="161.35849056603774" type="curve" smooth="yes"/>
      <point x="1401.4198113207547" y="220.5188679245283"/>
      <point x="1370.4528301886792" y="289.62735849056605"/>
      <point x="1355.3113207547171" y="354.54245283018867" type="curve" smooth="yes"/>
      <point x="1341.4858490566037" y="412.1933962264151"/>
      <point x="1340.9245283018868" y="474.7735849056604"/>
      <point x="1349.6792452830189" y="516.1603773584906" type="curve" smooth="yes"/>
      <point x="1355.433962264151" y="544.3018867924528"/>
      <point x="1364.504716981132" y="565.688679245283"/>
      <point x="1378.5943396226414" y="583.7075471698113" type="curve"/>
      <point x="1405.1745283018868" y="597.3584905660376"/>
      <point x="1434.5094339622642" y="604.3066037735848"/>
      <point x="1474.9150943396228" y="604.3066037735848" type="curve" smooth="yes"/>
      <point x="1534.8962264150944" y="604.3066037735848"/>
      <point x="1576.4575471698113" y="592.2358490566038"/>
      <point x="1610.561320754717" y="571.3584905660377" type="curve"/>
      <point x="1616.561320754717" y="571.3584905660377" type="line"/>
      <point x="1627.051886792453" y="582.4103773584906"/>
      <point x="1636.9811320754716" y="596.5849056603774"/>
      <point x="1641.2264150943397" y="615.4433962264151" type="curve" smooth="yes"/>
      <point x="1647.1556603773586" y="641.3537735849056"/>
      <point x="1642.7877358490566" y="661.7735849056604"/>
      <point x="1625.9292452830189" y="676.9481132075472" type="curve" smooth="yes"/>
      <point x="1604.0707547169811" y="697.1226415094341"/>
      <point x="1564.509433962264" y="710.0"/>
      <point x="1504.9999999999998" y="710.0" type="curve" smooth="yes"/>
      <point x="1363.3349056603774" y="710.0"/>
      <point x="1270.9858490566037" y="627.4056603773585"/>
      <point x="1251.5990566037735" y="534.4575471698113" type="curve" smooth="yes"/>
      <point x="1250.0377358490566" y="525.9669811320755" type="line" smooth="yes"/>
      <point x="1238.4056603773586" y="469.45754716981133"/>
      <point x="1240.9150943396228" y="399.58018867924534"/>
      <point x="1257.1084905660377" y="339.6839622641509" type="curve" smooth="yes"/>
      <point x="1282.3018867924527" y="247.22641509433964"/>
      <point x="1324.3207547169811" y="157.33018867924528"/>
    </contour>
    <contour>
      <point x="964.9103773584905" y="141.3443396226415" type="line"/>
      <point x="997.0518867924528" y="269.9858490566038"/>
      <point x="1035.5094339622644" y="316.5660377358491"/>
      <point x="1112.3867924528302" y="316.5660377358491" type="curve" smooth="yes"/>
      <point x="1173.0896226415093" y="316.5660377358491"/>
      <point x="1233.5990566037738" y="293.4764150943396"/>
      <point x="1305.25" y="232.82075471698116" type="curve"/>
      <point x="1274.004716981132" y="348.10377358490564" type="line"/>
      <point x="1251.617924528302" y="331.4009433962264" type="line"/>
      <point x="1209.4245283018868" y="377.64622641509436"/>
      <point x="1153.2311320754716" y="411.4198113207547"/>
      <point x="1095.0566037735848" y="411.4198113207547" type="curve" smooth="yes"/>
      <point x="1088.8632075471698" y="411.4198113207547" type="line" smooth="yes"/>
      <point x="1001.2122641509434" y="411.4198113207547"/>
      <point x="950.7028301886793" y="338.4339622641509"/>
      <point x="938.4905660377359" y="205.1509433962264" type="curve"/>
      <point x="912.8066037735849" y="205.1509433962264" type="line"/>
    </contour>
    <contour>
      <point x="1562.2641509433963" y="405.5047169811321" type="curve" smooth="yes"/>
      <point x="1546.3349056603772" y="405.5047169811321"/>
      <point x="1533.7216981132076" y="403.3820754716981"/>
      <point x="1525.3537735849056" y="400.8207547169811" type="curve"/>
      <point x="1523.3537735849056" y="386.87264150943395"/>
      <point x="1519.9150943396228" y="364.87264150943395"/>
      <point x="1514.2830188679247" y="346.29245283018867" type="curve" smooth="yes"/>
      <point x="1496.2830188679245" y="282.311320754717"/>
      <point x="1473.8254716981135" y="230.29245283018867"/>
      <point x="1409.3867924528302" y="172.90566037735852" type="curve"/>
      <point x="1450.4716981132074" y="116.5377358490566" type="line"/>
      <point x="1460.1556603773583" y="155.58962264150944" type="line"/>
      <point x="1550.311320754717" y="196.82075471698116"/>
      <point x="1604.627358490566" y="271.29716981132077"/>
      <point x="1620.627358490566" y="339.6320754716981" type="curve" smooth="yes"/>
      <point x="1622.75" y="348.0" type="line" smooth="yes"/>
      <point x="1631.8018867924527" y="383.59433962264154"/>
      <point x="1607.2783018867924" y="405.5047169811321"/>
    </contour>
    <contour>
      <point x="893.2688679245283" y="88.69811320754717" type="curve" smooth="yes"/>
      <point x="948.7924528301886" y="15.561320754716983"/>
      <point x="998.3018867924527" y="-9.316037735849058"/>
      <point x="1054.4764150943397" y="-9.316037735849058" type="curve" smooth="yes"/>
      <point x="1087.3349056603772" y="-9.316037735849058"/>
      <point x="1110.2641509433963" y="-2.3867924528301883"/>
      <point x="1128.1933962264147" y="10.226415094339623" type="curve" smooth="yes"/>
      <point x="1146.122641509434" y="22.839622641509433"/>
      <point x="1161.2971698113208" y="44.50471698113208"/>
      <point x="1167.7877358490566" y="75.34433962264153" type="curve" smooth="yes"/>
      <point x="1172.0330188679245" y="95.32547169811322"/>
      <point x="1170.7169811320755" y="113.18396226415095"/>
      <point x="1168.1556603773586" y="125.79716981132076" type="curve"/>
      <point x="1162.1556603773586" y="125.79716981132076" type="line"/>
      <point x="1132.419811320755" y="107.42924528301887"/>
      <point x="1110.316037735849" y="101.3066037735849"/>
      <point x="1074.8254716981132" y="101.3066037735849" type="curve" smooth="yes"/>
      <point x="1033.0707547169811" y="101.3066037735849"/>
      <point x="996.38679245283" y="119.42924528301887"/>
      <point x="963.4575471698112" y="161.35849056603774" type="curve" smooth="yes"/>
      <point x="917.8066037735849" y="220.95754716981133"/>
      <point x="886.4009433962264" y="289.62735849056605"/>
      <point x="871.2594339622642" y="354.54245283018867" type="curve" smooth="yes"/>
      <point x="857.433962264151" y="412.1933962264151"/>
      <point x="856.8726415094338" y="474.7735849056604"/>
      <point x="865.627358490566" y="516.1603773584906" type="curve" smooth="yes"/>
      <point x="871.382075471698" y="544.3018867924528"/>
      <point x="880.4528301886794" y="565.688679245283"/>
      <point x="894.5424528301887" y="583.7075471698113" type="curve"/>
      <point x="921.122641509434" y="597.3584905660376"/>
      <point x="950.4575471698113" y="604.3066037735848"/>
      <point x="990.8632075471697" y="604.3066037735848" type="curve" smooth="yes"/>
      <point x="1050.8443396226419" y="604.3066037735848"/>
      <point x="1092.4056603773586" y="592.2358490566038"/>
      <point x="1126.509433962264" y="571.3584905660377" type="curve"/>
      <point x="1132.5094339622642" y="571.3584905660377" type="line"/>
      <point x="1143.0" y="582.4103773584906"/>
      <point x="1152.9292452830189" y="596.5849056603774"/>
      <point x="1157.174528301887" y="615.4433962264151" type="curve" smooth="yes"/>
      <point x="1163.1037735849056" y="641.3537735849056"/>
      <point x="1158.7358490566037" y="661.7735849056604"/>
      <point x="1141.8773584905662" y="676.9481132075472" type="curve" smooth="yes"/>
      <point x="1120.0188679245284" y="697.1226415094341"/>
      <point x="1080.4575471698115" y="710.0"/>
      <point x="1020.9481132075472" y="710.0" type="curve" smooth="yes"/>
      <point x="879.2830188679245" y="710.0"/>
      <point x="786.9339622641508" y="627.4056603773585"/>
      <point x="767.5471698113206" y="534.4575471698113" type="curve" smooth="yes"/>
      <point x="765.9858490566037" y="525.9669811320755" type="line" smooth="yes"/>
      <point x="754.3537735849055" y="469.45754716981133"/>
      <point x="756.8632075471698" y="399.58018867924534"/>
      <point x="773.0566037735849" y="339.6839622641509" type="curve" smooth="yes"/>
      <point x="798.2499999999999" y="247.22641509433964"/>
      <point x="839.1462264150944" y="160.1367924528302"/>
    </contour>
  </outline>
</glyph>
<glyph name="at.alt" format="2">
  <advance width="600.0"/>
  <outline>
    <contour>
      <point x="55.26415094339625" y="281.1745283018868" type="curve" smooth="yes"/>
      <point x="49.89622641509435" y="258.7028301886793" type="line" smooth="yes"/>
      <point x="-6.981132075471698" y="14.981132075471699"/>
      <point x="49.632075471698116" y="-151.93396226415092"/>
      <point x="242.5990566037735" y="-151.93396226415092" type="curve" smooth="yes"/>
      <point x="292.2122641509434" y="-151.93396226415092"/>
      <point x="341.8443396226415" y="-145.30188679245285"/>
      <point x="368.89622641509436" y="-126.688679245283" type="curve" smooth="yes"/>
      <point x="391.2641509433962" y="-111.1981132075472"/>
      <point x="399.50943396226415" y="-90.63679245283019"/>
      <point x="402.3160377358491" y="-67.46226415094341" type="curve" smooth="yes"/>
      <point x="403.99999999999994" y="-57.04245283018871"/>
      <point x="403.438679245283" y="-51.79716981132076"/>
      <point x="402.316037735849" y="-45.86792452830188" type="curve"/>
      <point x="396.316037735849" y="-45.86792452830188" type="line"/>
      <point x="348.0" y="-65.86792452830187"/>
      <point x="300.6839622641509" y="-73.86792452830188"/>
      <point x="253.07075471698113" y="-73.86792452830188" type="curve" smooth="yes"/>
      <point x="213.89622641509436" y="-73.86792452830188"/>
      <point x="179.1084905660377" y="-70.62264150943395"/>
      <point x="145.79245283018867" y="-58.93867924528301" type="curve" smooth="yes"/>
      <point x="103.73584905660377" y="-7.448113207547166"/>
      <point x="88.89150943396228" y="106.87264150943395"/>
      <point x="126.40094339622642" y="258.438679245283" type="curve" smooth="yes"/>
      <point x="129.96226415094344" y="272.561320754717" type="line" smooth="yes"/>
      <point x="188.76886792452834" y="508.70283018867934"/>
      <point x="324.2971698113207" y="674.3867924528302"/>
      <point x="459.0518867924529" y="674.3867924528302" type="curve" smooth="yes"/>
      <point x="477.63207547169804" y="674.3867924528302"/>
      <point x="492.8962264150942" y="672.9481132075471"/>
      <point x="508.5283018867926" y="667.8773584905662" type="curve"/>
      <point x="519.6179245283018" y="635.6839622641509"/>
      <point x="519.811320754717" y="599.3490566037735"/>
      <point x="509.5471698113207" y="538.4481132075473" type="curve" smooth="yes"/>
      <point x="487.7405660377359" y="409.0990566037736"/>
      <point x="428.9339622641509" y="255.30660377358492"/>
      <point x="413.88207547169816" y="132.5377358490566" type="curve" smooth="yes"/>
      <point x="406.51415094339626" y="73.45283018867924"/>
      <point x="442.65094339622635" y="45.22641509433962"/>
      <point x="493.438679245283" y="45.22641509433962" type="curve"/>
      <point x="504.4905660377358" y="45.22641509433962" type="line"/>
      <point x="501.1745283018867" y="74.27830188679246"/>
      <point x="503.9811320754717" y="101.62735849056607"/>
      <point x="508.98113207547175" y="140.64622641509436" type="curve" smooth="yes"/>
      <point x="524.0330188679245" y="250.04716981132077"/>
      <point x="578.0330188679245" y="397.73584905660374"/>
      <point x="597.1556603773586" y="508.4528301886792" type="curve" smooth="yes"/>
      <point x="625.2264150943397" y="670.4716981132075"/>
      <point x="577.2971698113209" y="752.4528301886793"/>
      <point x="458.8584905660377" y="752.4528301886793" type="curve" smooth="yes"/>
      <point x="291.80660377358487" y="752.4528301886793"/>
      <point x="119.12264150943399" y="554.3820754716982"/>
    </contour>
    <contour>
      <point x="485.92924528301893" y="219.90566037735852" type="line"/>
      <point x="431.7877358490567" y="159.37735849056605"/>
      <point x="386.78773584905656" y="129.20283018867926"/>
      <point x="346.1556603773586" y="129.20283018867926" type="curve" smooth="yes"/>
      <point x="310.67924528301876" y="129.20283018867926"/>
      <point x="298.4150943396227" y="175.69811320754718"/>
      <point x="317.117924528302" y="257.12264150943395" type="curve" smooth="yes"/>
      <point x="318.679245283019" y="264.49056603773585" type="line" smooth="yes"/>
      <point x="332.87264150943406" y="328.5613207547169"/>
      <point x="355.9952830188679" y="382.10377358490564"/>
      <point x="390.504716981132" y="434.01415094339626" type="curve" smooth="yes"/>
      <point x="402.45283018867923" y="437.20754716981133"/>
      <point x="417.08490566037733" y="438.6462264150943"/>
      <point x="432.5424528301887" y="438.6462264150943" type="curve" smooth="yes"/>
      <point x="458.87735849056605" y="438.6462264150943"/>
      <point x="489.2641509433963" y="425.8207547169811"/>
      <point x="508.0188679245283" y="406.2405660377358" type="curve"/>
      <point x="531.3160377358492" y="492.306603773585" type="line"/>
      <point x="493.7924528301887" y="492.306603773585" type="line"/>
      <point x="479.8443396226415" y="509.5"/>
      <point x="459.6320754716981" y="523.254716981132"/>
      <point x="430.8066037735849" y="523.254716981132" type="curve" smooth="yes"/>
      <point x="351.17452830188677" y="523.254716981132"/>
      <point x="267.00000000000006" y="433.48584905660374"/>
      <point x="226.5801886792453" y="258.3349056603774" type="curve" smooth="yes"/>
      <point x="224.14150943396228" y="248.0188679245283" type="line" smooth="yes"/>
      <point x="193.94811320754718" y="118.70283018867924"/>
      <point x="230.1933962264151" y="39.91037735849056"/>
      <point x="303.65094339622647" y="39.91037735849056" type="curve" smooth="yes"/>
      <point x="348.1084905660378" y="39.91037735849056"/>
      <point x="377.7405660377358" y="55.910377358490564"/>
      <point x="411.4952830188679" y="95.54245283018867" type="curve"/>
      <point x="454.58018867924534" y="95.54245283018867" type="line"/>
    </contour>
  </outline>
</glyph>
<glyph name="braceleft.case" format="2">
  <advance width="600.0"/>
  <outline>
    <contour>
      <point x="351.24056603773585" y="212.3679245283019" type="curve" smooth="yes"/>
      <point x="364.5566037735849" y="264.58018867924534"/>
      <point x="342.36320754716985" y="301.2641509433962"/>
      <point x="280.6792452830189" y="318.52830188679246" type="curve"/>
      <point x="282.6792452830189" y="324.5283018867925" type="line"/>
      <point x="354.48584905660385" y="339.52830188679246"/>
      <point x="387.4339622641509" y="368.65094339622635"/>
      <point x="402.872641509434" y="429.21226415094344" type="curve" smooth="yes"/>
      <point x="417.0660377358491" y="483.23113207547163"/>
      <point x="394.15094339622647" y="538.1792452830189"/>
      <point x="396.8018867924529" y="582.4622641509434" type="curve" smooth="yes"/>
      <point x="396.1179245283019" y="590.1462264150944"/>
      <point x="395.872641509434" y="597.1462264150942"/>
      <point x="396.75000000000006" y="601.4622641509434" type="curve"/>
      <point x="423.50471698113205" y="625.6745283018868"/>
      <point x="465.4198113207548" y="638.6933962264151"/>
      <point x="514.6320754716982" y="638.6933962264151" type="curve" smooth="yes"/>
      <point x="542.0707547169811" y="638.6933962264151"/>
      <point x="564.9481132075471" y="636.132075471698"/>
      <point x="581.1415094339623" y="630.6933962264151" type="curve"/>
      <point x="587.1415094339623" y="630.6933962264151" type="line"/>
      <point x="593.38679245283" y="642.3066037735849"/>
      <point x="599.193396226415" y="657.8490566037736"/>
      <point x="603.438679245283" y="674.7075471698113" type="curve" smooth="yes"/>
      <point x="613.4905660377358" y="715.9150943396226"/>
      <point x="596.0707547169811" y="750.0"/>
      <point x="543.3349056603773" y="750.0" type="curve"/>
      <point x="538.8962264150942" y="750.0" type="line" smooth="yes"/>
      <point x="424.4905660377359" y="750.0"/>
      <point x="328.26415094339626" y="698.8066037735848"/>
      <point x="311.82547169811323" y="628.561320754717" type="curve" smooth="yes"/>
      <point x="310.26415094339626" y="621.754716981132" type="line" smooth="yes"/>
      <point x="298.0707547169812" y="568.7358490566037"/>
      <point x="324.35377358490564" y="509.82547169811323"/>
      <point x="310.1603773584906" y="449.12264150943395" type="curve" smooth="yes"/>
      <point x="297.2830188679245" y="392.9292452830189"/>
      <point x="250.43867924528303" y="377.47169811320754"/>
      <point x="155.8396226415094" y="377.47169811320754" type="curve" smooth="yes"/>
      <point x="129.92924528301884" y="377.47169811320754" type="line"/>
      <point x="122.438679245283" y="366.17452830188677"/>
      <point x="117.63207547169812" y="353.0"/>
      <point x="113.38679245283019" y="337.89622641509436" type="curve" smooth="yes"/>
      <point x="103.2122641509434" y="295.75943396226415"/>
      <point x="112.07075471698114" y="278.6367924528302"/>
      <point x="144.34905660377356" y="278.6367924528302" type="curve" smooth="yes"/>
      <point x="148.0330188679245" y="278.6367924528302" type="line" smooth="yes"/>
      <point x="227.7735849056604" y="278.6367924528302"/>
      <point x="260.1792452830189" y="257.1792452830188"/>
      <point x="246.8632075471698" y="205.91509433962267" type="curve" smooth="yes"/>
      <point x="231.23113207547166" y="143.3867924528302"/>
      <point x="174.14150943396223" y="97.59905660377358"/>
      <point x="163.38679245283018" y="44.14150943396226" type="curve" smooth="yes"/>
      <point x="161.8254716981132" y="36.33490566037736" type="line" smooth="yes"/>
      <point x="147.82547169811318" y="-34.7877358490566"/>
      <point x="206.81132075471695" y="-83.22641509433963"/>
      <point x="325.10849056603774" y="-83.22641509433963" type="curve" smooth="yes"/>
      <point x="330.5471698113208" y="-83.22641509433963" type="line" smooth="yes"/>
      <point x="386.7547169811321" y="-83.22641509433963"/>
      <point x="420.1037735849057" y="-53.94811320754717"/>
      <point x="434.5235849056604" y="6.344339622641513" type="curve" smooth="yes"/>
      <point x="437.0849056603774" y="19.028301886792455"/>
      <point x="438.0849056603774" y="31.64150943396227"/>
      <point x="437.5235849056604" y="39.88679245283019" type="curve"/>
      <point x="431.5235849056604" y="39.88679245283019" type="line"/>
      <point x="406.66509433962267" y="31.641509433962263"/>
      <point x="386.54245283018867" y="29.080188679245282"/>
      <point x="358.85849056603774" y="29.080188679245282" type="curve" smooth="yes"/>
      <point x="312.4339622641509" y="29.080188679245282"/>
      <point x="279.2735849056604" y="39.66037735849057"/>
      <point x="259.71226415094344" y="59.43396226415095" type="curve"/>
      <point x="260.8349056603774" y="63.18867924528302"/>
      <point x="262.9575471698113" y="69.06603773584906"/>
      <point x="268.3254716981133" y="77.06603773584905" type="curve" smooth="yes"/>
      <point x="292.5518867924529" y="120.96226415094338"/>
      <point x="337.36320754716985" y="158.1556603773585"/>
    </contour>
  </outline>
</glyph>
<glyph name="bracketleft.case" format="2">
  <advance width="600.0"/>
  <outline>
    <contour>
      <point x="396.3207547169812" y="-55.29716981132076" type="line"/>
      <point x="402.811320754717" y="-44.0"/>
      <point x="408.17924528301893" y="-32.58018867924528"/>
      <point x="412.4245283018868" y="-16.160377358490564" type="curve" smooth="yes"/>
      <point x="424.59905660377365" y="30.537735849056606"/>
      <point x="415.10849056603774" y="46.589622641509436"/>
      <point x="383.8301886792453" y="46.589622641509436" type="curve"/>
      <point x="229.29245283018864" y="46.589622641509436" type="line"/>
      <point x="248.09905660377362" y="256.7122641509434"/>
      <point x="363.8207547169812" y="417.77358490566036"/>
      <point x="381.6981132075472" y="642.5" type="curve"/>
      <point x="579.2688679245283" y="642.5" type="line"/>
      <point x="586.1981132075472" y="652.5518867924527"/>
      <point x="592.004716981132" y="665.8490566037735"/>
      <point x="596.2499999999999" y="680.7075471698114" type="curve" smooth="yes"/>
      <point x="605.9858490566037" y="720.3349056603774"/>
      <point x="598.25" y="744.3867924528302"/>
      <point x="570.5849056603773" y="744.3867924528302" type="curve"/>
      <point x="338.84433962264154" y="744.3867924528302" type="line" smooth="yes"/>
      <point x="313.6698113207547" y="744.3867924528302"/>
      <point x="295.98584905660374" y="742.8254716981132"/>
      <point x="280.372641509434" y="738.7028301886793" type="curve"/>
      <point x="281.49528301886795" y="704.0188679245283"/>
      <point x="277.37264150943406" y="671.4056603773585"/>
      <point x="271.933962264151" y="628.7735849056603" type="curve" smooth="yes"/>
      <point x="241.9339622641509" y="395.683962264151"/>
      <point x="137.86320754716982" y="274.60849056603774"/>
      <point x="114.54716981132076" y="35.466981132075475" type="curve" smooth="yes"/>
      <point x="110.30188679245283" y="-6.547169811320754"/>
      <point x="131.89622641509436" y="-55.29716981132076"/>
      <point x="165.85849056603777" y="-55.29716981132076" type="curve" smooth="yes"/>
    </contour>
  </outline>
</glyph>
<glyph name="check" format="2">
  <advance width="600.0"/>
  <outline>
    <contour>
      <point x="361.2594339622642" y="122.38679245283019" type="line"/>
      <point x="432.0849056603774" y="309.3867924528302"/>
      <point x="515.9103773584907" y="510.43867924528297"/>
      <point x="612.6132075471698" y="654.1556603773585" type="curve"/>
      <point x="599.0" y="671.6462264150944"/>
      <point x="580.5094339622642" y="683.4528301886793"/>
      <point x="561.7735849056604" y="683.4528301886793" type="curve" smooth="yes"/>
      <point x="543.7216981132075" y="683.4528301886793"/>
      <point x="519.25" y="676.8915094339623"/>
      <point x="499.1981132075472" y="644.2264150943396" type="curve" smooth="yes"/>
      <point x="422.7924528301887" y="524.0141509433962"/>
      <point x="354.3160377358491" y="366.20283018867923"/>
      <point x="297.00000000000006" y="195.29245283018867" type="curve"/>
      <point x="336.0" y="211.29245283018867" type="line"/>
      <point x="260.0" y="211.29245283018867" type="line"/>
      <point x="307.3867924528302" y="195.29245283018867" type="line"/>
      <point x="257.96226415094344" y="264.24056603773585"/>
      <point x="221.60849056603772" y="345.89150943396226"/>
      <point x="203.02830188679243" y="430.5754716981132" type="curve"/>
      <point x="186.24056603773582" y="435.9433962264151"/>
      <point x="171.8207547169811" y="438.627358490566"/>
      <point x="150.54245283018867" y="438.627358490566" type="curve" smooth="yes"/>
      <point x="124.1745283018868" y="438.627358490566"/>
      <point x="113.0" y="427.311320754717"/>
      <point x="113.0" y="411.9433962264151" type="curve" smooth="yes"/>
      <point x="113.0" y="395.08490566037733"/>
      <point x="117.31603773584906" y="377.4009433962264"/>
      <point x="125.50943396226415" y="350.83962264150944" type="curve" smooth="yes"/>
      <point x="143.4575471698113" y="291.3490566037736"/>
      <point x="182.2311320754717" y="208.6132075471698"/>
      <point x="223.00471698113208" y="157.29716981132077" type="curve" smooth="yes"/>
      <point x="243.37264150943395" y="129.63207547169813"/>
      <point x="258.1792452830189" y="122.38679245283019"/>
      <point x="298.45754716981133" y="122.38679245283019" type="curve" smooth="yes"/>
    </contour>
  </outline>
</glyph>
<glyph name="commaturnedabovecomb.case" format="2">
  <anchor x="110.87735849056602" y="711.0" name="_top"/>
  <outline>
    <contour>
      <point x="264.08490566037733" y="924.245283018868" type="curve"/>
      <point x="249.66509433962264" y="933.6132075471698"/>
      <point x="232.68396226415095" y="939.8584905660377"/>
      <point x="210.33490566037733" y="939.8584905660377" type="curve" smooth="yes"/>
      <point x="191.47641509433961" y="939.8584905660377"/>
      <point x="179.42452830188677" y="935.1745283018868"/>
      <point x="164.93396226415092" y="923.8066037735849" type="curve"/>
      <point x="131.37264150943395" y="896.8066037735849"/>
      <point x="96.17924528301884" y="847.8584905660377"/>
      <point x="89.05660377358488" y="807.1037735849056" type="curve" smooth="yes"/>
      <point x="83.24999999999999" y="775.877358490566"/>
      <point x="100.4764150943396" y="764.2641509433962"/>
      <point x="135.12264150943395" y="764.2641509433962" type="curve" smooth="yes"/>
      <point x="154.98113207547172" y="764.2641509433962"/>
      <point x="171.2783018867924" y="767.2641509433962"/>
      <point x="185.89150943396223" y="772.8254716981132" type="curve"/>
      <point x="200.4528301886792" y="826.8962264150944"/>
      <point x="223.0141509433962" y="872.5613207547169"/>
    </contour>
  </outline>
</glyph>
<glyph name="dotlessj.italic" format="2">
  <advance width="600.0"/>
  <outline>
    <contour>
      <point x="421.23113207547175" y="543.8584905660377" type="curve" smooth="yes"/>
      <point x="349.4575471698113" y="543.8584905660377"/>
      <point x="240.811320754717" y="542.1745283018868"/>
      <point x="153.10377358490564" y="533.8584905660377" type="curve"/>
      <point x="143.49056603773585" y="521.0"/>
      <point x="136.43867924528305" y="505.4575471698112"/>
      <point x="131.63207547169816" y="486.66981132075466" type="curve" smooth="yes"/>
      <point x="120.89622641509433" y="443.4103773584905"/>
      <point x="133.63207547169807" y="420.9905660377358"/>
      <point x="160.41981132075472" y="420.9905660377358" type="curve" smooth="yes"/>
      <point x="194.1556603773585" y="420.9905660377358"/>
      <point x="263.9481132075471" y="432.7452830188679"/>
      <point x="383.5141509433962" y="458.32075471698107" type="curve"/>
      <point x="388.0754716981132" y="453.88207547169804" type="line"/>
      <point x="334.811320754717" y="294.0377358490565"/>
      <point x="332.4245283018867" y="180.62735849056605"/>
      <point x="287.21226415094344" y="53.34433962264153" type="curve" smooth="yes"/>
      <point x="265.8254716981132" y="-5.797169811320746"/>
      <point x="245.58018867924525" y="-45.2877358490566"/>
      <point x="213.03773584905662" y="-80.58490566037736" type="curve"/>
      <point x="185.21226415094338" y="-92.91981132075473"/>
      <point x="153.7547169811321" y="-97.55188679245282"/>
      <point x="116.66509433962264" y="-97.55188679245282" type="curve" smooth="yes"/>
      <point x="51.471698113207566" y="-97.55188679245282"/>
      <point x="17.033018867924532" y="-86.8679245283019"/>
      <point x="-16.96698113207547" y="-63.287735849056595" type="curve"/>
      <point x="-21.844339622641506" y="-63.287735849056595" type="line"/>
      <point x="-27.405660377358476" y="-72.21698113207546"/>
      <point x="-31.40566037735849" y="-82.02358490566039"/>
      <point x="-34.96698113207546" y="-93.83018867924525" type="curve" smooth="yes"/>
      <point x="-42.33490566037736" y="-121.42452830188675"/>
      <point x="-41.33490566037735" y="-144.89622641509433"/>
      <point x="-30.160377358490564" y="-160.31603773584908" type="curve" smooth="yes"/>
      <point x="-14.721698113207538" y="-181.31603773584905"/>
      <point x="22.806603773584904" y="-200.0"/>
      <point x="95.22641509433963" y="-200.0" type="curve" smooth="yes"/>
      <point x="233.9811320754717" y="-200.0"/>
      <point x="319.3632075471698" y="-159.3160377358491"/>
      <point x="382.31132075471703" y="8.36792452830188" type="curve" smooth="yes"/>
      <point x="435.4528301886792" y="150.21226415094335"/>
      <point x="435.3301886792453" y="285.97169811320754"/>
      <point x="502.08490566037744" y="459.53301886792457" type="curve" smooth="yes"/>
      <point x="517.5047169811322" y="500.10849056603763"/>
      <point x="485.1556603773585" y="543.8584905660377"/>
    </contour>
  </outline>
</glyph>
<glyph name="exclam_equal.code" format="2">
  <advance width="1200.0"/>
  <outline>
    <contour>
      <point x="697.0283018867925" y="402.64150943396226" type="line"/>
      <point x="702.3254716981131" y="410.5518867924528"/>
      <point x="705.5000000000001" y="418.58490566037733"/>
      <point x="708.5518867924529" y="429.6698113207548" type="curve" smooth="yes"/>
      <point x="714.2169811320755" y="450.33018867924534"/>
      <point x="706.061320754717" y="464.9056603773586"/>
      <point x="682.2783018867925" y="464.9056603773586" type="curve" smooth="yes"/>
      <point x="583.3066037735848" y="464.9056603773586" type="line"/>
      <point x="581.254716981132" y="459.92452830188677"/>
      <point x="578.6415094339621" y="454.25943396226415"/>
      <point x="576.1509433962264" y="444.0518867924528" type="curve" smooth="yes"/>
      <point x="569.9245283018868" y="417.5330188679245"/>
      <point x="578.3254716981132" y="402.64150943396226"/>
      <point x="612.2122641509434" y="402.64150943396226" type="curve"/>
    </contour>
    <contour>
      <point x="634.5896226415094" y="152.64150943396226" type="line"/>
      <point x="637.6415094339623" y="155.37735849056605"/>
      <point x="641.9386792452831" y="162.28773584905662"/>
      <point x="644.4292452830189" y="173.93396226415095" type="curve" smooth="yes"/>
      <point x="649.6556603773586" y="200.7688679245283"/>
      <point x="640.3066037735849" y="214.9056603773585"/>
      <point x="604.4198113207547" y="214.9056603773585" type="curve" smooth="yes"/>
      <point x="524.6745283018868" y="214.9056603773585" type="line"/>
      <point x="518.1320754716982" y="203.188679245283"/>
      <point x="513.8349056603776" y="191.91037735849056"/>
      <point x="510.78301886792474" y="181.89622641509433" type="curve" smooth="yes"/>
      <point x="505.9245283018869" y="165.2877358490566"/>
      <point x="512.8349056603774" y="152.64150943396226"/>
      <point x="534.0754716981132" y="152.64150943396226" type="curve"/>
    </contour>
    <contour>
      <point x="901.1367924528302" y="750.561320754717" type="curve"/>
      <point x="877.7358490566039" y="759.0518867924528"/>
      <point x="859.1933962264152" y="762.7358490566038"/>
      <point x="832.4764150943397" y="762.7358490566038" type="curve" smooth="yes"/>
      <point x="795.9009433962264" y="762.7358490566038"/>
      <point x="762.7452830188679" y="750.1933962264151"/>
      <point x="735.9056603773585" y="690.7783018867924" type="curve" smooth="yes"/>
      <point x="612.9198113207548" y="429.2830188679245"/>
      <point x="455.39150943396226" y="179.12264150943398"/>
      <point x="266.25" y="-32.25" type="curve" smooth="yes"/>
      <point x="222.84905660377356" y="-78.96698113207546"/>
      <point x="193.62264150943395" y="-99.52830188679245"/>
      <point x="166.25471698113205" y="-112.79245283018867" type="curve"/>
      <point x="180.42924528301884" y="-128.58018867924528"/>
      <point x="204.02358490566039" y="-136.75471698113208"/>
      <point x="231.17924528301884" y="-136.75471698113208" type="curve" smooth="yes"/>
      <point x="278.5094339622641" y="-136.75471698113208"/>
      <point x="317.76886792452825" y="-118.52830188679246"/>
      <point x="371.9575471698113" y="-65.95283018867924" type="curve"/>
      <point x="576.8349056603774" y="143.66509433962264"/>
      <point x="760.4669811320755" y="436.91037735849056"/>
    </contour>
  </outline>
</glyph>
<glyph name="exclam_equal_equal.code" format="2">
  <advance width="1800.0"/>
  <outline>
    <contour>
      <point x="1745.877358490566" y="522.0377358490566" type="line"/>
      <point x="1751.8066037735848" y="536.4575471698114"/>
      <point x="1758.1745283018865" y="552.438679245283"/>
      <point x="1761.8584905660377" y="566.1745283018868" type="curve" smooth="yes"/>
      <point x="1772.5943396226414" y="611.6792452830189"/>
      <point x="1759.7169811320755" y="628.1698113207548"/>
      <point x="1716.8773584905662" y="628.1698113207548" type="curve" smooth="yes"/>
      <point x="199.1933962264151" y="628.1698113207548" type="line"/>
      <point x="198.6320754716981" y="623.4858490566038"/>
      <point x="197.07075471698113" y="618.3632075471698"/>
      <point x="196.07075471698113" y="613.117924528302" type="curve" smooth="yes"/>
      <point x="177.8443396226415" y="540.2122641509434"/>
      <point x="188.21226415094338" y="522.0377358490566"/>
      <point x="247.69811320754715" y="522.0377358490566" type="curve" smooth="yes"/>
    </contour>
    <contour>
      <point x="1693.9999999999998" y="296.42452830188677" type="line"/>
      <point x="1695.1226415094338" y="301.10849056603774"/>
      <point x="1696.1226415094338" y="306.2311320754717"/>
      <point x="1697.683962264151" y="311.47641509433964" type="curve" smooth="yes"/>
      <point x="1715.9103773584905" y="384.38207547169816"/>
      <point x="1705.5424528301887" y="402.5566037735849"/>
      <point x="1646.0566037735848" y="402.5566037735849" type="curve" smooth="yes"/>
      <point x="147.87735849056605" y="402.5566037735849" type="line"/>
      <point x="141.94811320754718" y="388.5754716981132"/>
      <point x="135.5801886792453" y="372.59433962264154"/>
      <point x="131.89622641509436" y="358.4198113207547" type="curve" smooth="yes"/>
      <point x="120.5990566037736" y="312.9150943396226"/>
      <point x="133.47641509433961" y="296.42452830188677"/>
      <point x="176.31603773584905" y="296.42452830188677" type="curve" smooth="yes"/>
    </contour>
    <contour>
      <point x="1637.877358490566" y="70.81132075471697" type="line"/>
      <point x="1638.4386792452829" y="75.49528301886792"/>
      <point x="1640.0" y="80.61792452830188"/>
      <point x="1640.9999999999998" y="85.86320754716982" type="curve" smooth="yes"/>
      <point x="1658.1037735849054" y="152.5943396226415"/>
      <point x="1638.754716981132" y="176.9433962264151"/>
      <point x="1571.9716981132076" y="176.9433962264151" type="curve" smooth="yes"/>
      <point x="91.1933962264151" y="176.9433962264151" type="line"/>
      <point x="85.26415094339623" y="162.9622641509434"/>
      <point x="78.89622641509435" y="146.9811320754717"/>
      <point x="75.2122641509434" y="132.8066037735849" type="curve" smooth="yes"/>
      <point x="65.59905660377359" y="92.35377358490565"/>
      <point x="87.45754716981132" y="70.81132075471697"/>
      <point x="154.43396226415095" y="70.81132075471697" type="curve" smooth="yes"/>
    </contour>
    <contour>
      <point x="1188.683962264151" y="767.929245283019" type="curve"/>
      <point x="1165.2830188679247" y="776.4198113207548"/>
      <point x="1146.7405660377356" y="780.1037735849058"/>
      <point x="1120.02358490566" y="780.1037735849058" type="curve" smooth="yes"/>
      <point x="1083.448113207547" y="780.1037735849058"/>
      <point x="1050.2924528301887" y="767.561320754717"/>
      <point x="1023.4528301886793" y="708.1462264150944" type="curve" smooth="yes"/>
      <point x="900.4669811320755" y="446.65094339622635"/>
      <point x="751.7122641509435" y="214.03773584905662"/>
      <point x="562.5707547169811" y="2.6650943396226445" type="curve" smooth="yes"/>
      <point x="519.1698113207547" y="-44.05188679245285"/>
      <point x="489.9433962264152" y="-64.61320754716982"/>
      <point x="462.5754716981131" y="-77.87735849056604" type="curve"/>
      <point x="476.75" y="-93.66509433962267"/>
      <point x="500.3443396226415" y="-101.83962264150946"/>
      <point x="527.5" y="-101.83962264150946" type="curve" smooth="yes"/>
      <point x="573.9528301886792" y="-101.83962264150946"/>
      <point x="614.0896226415094" y="-84.49056603773587"/>
      <point x="668.7169811320755" y="-31.037735849056606" type="curve"/>
      <point x="872.7169811320754" y="179.89622641509436"/>
      <point x="1048.0141509433963" y="454.2783018867924"/>
    </contour>
  </outline>
</glyph>
<glyph name="g.italic" format="2">
  <advance width="600.0"/>
  <outline>
    <contour>
      <point x="126.93396226415095" y="73.82547169811322" type="curve" smooth="yes"/>
      <point x="114.56603773584905" y="24.03773584905661"/>
      <point x="150.2122641509434" y="-26.452830188679247"/>
      <point x="220.2641509433962" y="-30.57547169811321" type="curve" smooth="yes"/>
      <point x="318.3867924528302" y="-36.698113207547166" type="line" smooth="yes"/>
      <point x="358.0047169811321" y="-38.575471698113205"/>
      <point x="370.4622641509434" y="-63.665094339622634"/>
      <point x="361.9528301886792" y="-92.8254716981132" type="curve" smooth="yes"/>
      <point x="358.8301886792452" y="-103.1933962264151" type="line" smooth="yes"/>
      <point x="353.9528301886792" y="-120.8254716981132"/>
      <point x="346.3207547169811" y="-140.40566037735852"/>
      <point x="335.566037735849" y="-152.72169811320757" type="curve" smooth="yes"/>
      <point x="285.4952830188679" y="-170.17924528301887"/>
      <point x="236.93396226415092" y="-177.68867924528303"/>
      <point x="173.40566037735852" y="-177.68867924528303" type="curve"/>
      <point x="144.61320754716985" y="-177.68867924528303" type="line" smooth="yes"/>
      <point x="65.36320754716982" y="-177.68867924528303"/>
      <point x="42.169811320754725" y="-145.65094339622638"/>
      <point x="54.16981132075472" y="-104.50943396226415" type="curve" smooth="yes"/>
      <point x="57.29245283018868" y="-94.26415094339622" type="line" smooth="yes"/>
      <point x="68.9245283018868" y="-52.34905660377358"/>
      <point x="107.08490566037737" y="-19.400943396226417"/>
      <point x="173.70283018867926" y="-14.136792452830191" type="curve"/>
      <point x="136.4245283018868" y="31.721698113207545" type="line"/>
      <point x="127.86320754716982" y="17.84433962264151" type="line"/>
      <point x="24.42452830188678" y="11.334905660377355"/>
      <point x="-31.768867924528305" y="-29.419811320754718"/>
      <point x="-49.278301886792455" y="-95.19339622641508" type="curve" smooth="yes"/>
      <point x="-52.40094339622642" y="-107.24528301886791" type="line" smooth="yes"/>
      <point x="-70.40094339622642" y="-175.7358490566038"/>
      <point x="-18.349056603773594" y="-255.0"/>
      <point x="121.85849056603773" y="-255.0" type="curve" smooth="yes"/>
      <point x="147.52830188679246" y="-255.0" type="line" smooth="yes"/>
      <point x="362.52830188679246" y="-255.0"/>
      <point x="443.91037735849056" y="-185.91037735849056"/>
      <point x="466.40094339622635" y="-91.14150943396226" type="curve" smooth="yes"/>
      <point x="469.52358490566036" y="-78.08962264150944" type="line" smooth="yes"/>
      <point x="486.2075471698113" y="-9.231132075471695"/>
      <point x="444.2971698113207" y="47.52358490566037"/>
      <point x="367.89150943396226" y="52.9622641509434" type="curve" smooth="yes"/>
      <point x="260.47169811320754" y="61.08490566037735" type="line" smooth="yes"/>
      <point x="233.1367924528302" y="63.52358490566038"/>
      <point x="224.1367924528302" y="78.64622641509435"/>
      <point x="229.57547169811323" y="99.96226415094341" type="curve" smooth="yes"/>
      <point x="235.4528301886793" y="126.03301886792454"/>
      <point x="253.5943396226415" y="155.3679245283019"/>
      <point x="277.438679245283" y="171.07075471698113" type="curve"/>
      <point x="205.4575471698113" y="177.56132075471697" type="line"/>
      <point x="206.33490566037736" y="162.99999999999997" type="line"/>
      <point x="162.30188679245282" y="144.0"/>
      <point x="135.93396226415095" y="111.07075471698113"/>
    </contour>
    <contour>
      <point x="391.12735849056605" y="463.3207547169811" type="line"/>
      <point x="429.21698113207543" y="429.49528301886795"/>
      <point x="438.4292452830189" y="383.45754716981133"/>
      <point x="425.1650943396226" y="335.10377358490564" type="curve" smooth="yes"/>
      <point x="422.6037735849057" y="325.2971698113207" type="line" smooth="yes"/>
      <point x="406.9009433962264" y="267.31132075471703"/>
      <point x="358.3726415094339" y="238.9245283018868"/>
      <point x="283.3867924528302" y="238.9245283018868" type="curve" smooth="yes"/>
      <point x="242.3867924528302" y="238.9245283018868"/>
      <point x="215.68396226415095" y="244.80188679245282"/>
      <point x="187.54245283018872" y="258.433962264151" type="curve" smooth="yes"/>
      <point x="170.38207547169813" y="281.8915094339622"/>
      <point x="170.5047169811321" y="312.2452830188679"/>
      <point x="177.1367924528302" y="338.7735849056604" type="curve" smooth="yes"/>
      <point x="179.1367924528302" y="346.3349056603774" type="line" smooth="yes"/>
      <point x="199.40094339622644" y="421.12735849056605"/>
      <point x="256.0518867924529" y="453.58490566037733"/>
      <point x="351.89622641509436" y="453.58490566037733" type="curve"/>
      <point x="475.688679245283" y="453.58490566037733"/>
      <point x="525.9339622641509" y="440.39150943396226"/>
      <point x="563.495283018868" y="440.39150943396226" type="curve" smooth="yes"/>
      <point x="591.1603773584907" y="440.39150943396226"/>
      <point x="607.4575471698114" y="466.9339622641509"/>
      <point x="616.9481132075472" y="501.4575471698113" type="curve" smooth="yes"/>
      <point x="620.6320754716982" y="515.7547169811321"/>
      <point x="621.754716981132" y="528.2971698113207"/>
      <point x="620.6320754716982" y="536.1037735849056" type="curve"/>
      <point x="536.9811320754718" y="543.4198113207548"/>
      <point x="464.6650943396226" y="547.7358490566038"/>
      <point x="377.78773584905656" y="547.7358490566038" type="curve"/>
      <point x="212.70283018867926" y="547.7358490566038"/>
      <point x="116.28301886792451" y="484.4716981132075"/>
      <point x="87.59905660377358" y="374.24528301886795" type="curve" smooth="yes"/>
      <point x="85.16037735849056" y="364.9292452830188" type="line" smooth="yes"/>
      <point x="56.599056603773576" y="256.6320754716981"/>
      <point x="138.70283018867926" y="159.31603773584908"/>
      <point x="274.82547169811323" y="160.43867924528303" type="curve" smooth="yes"/>
      <point x="402.89622641509436" y="160.43867924528303"/>
      <point x="483.438679245283" y="196.2641509433962"/>
      <point x="511.50943396226415" y="293.84433962264154" type="curve" smooth="yes"/>
      <point x="514.5094339622641" y="304.4056603773585" type="line" smooth="yes"/>
      <point x="529.8962264150942" y="357.811320754717"/>
      <point x="511.08962264150944" y="408.44339622641513"/>
      <point x="468.33490566037733" y="442.5849056603773" type="curve" smooth="yes"/>
      <point x="473.2122641509434" y="459.02358490566036" type="line"/>
    </contour>
  </outline>
</glyph>
<glyph name="numbersign_numbersign_numbersign.code" format="2">
  <advance width="1800.0"/>
  <outline>
    <contour>
      <point x="528.4858490566039" y="434.9150943396226" type="line"/>
      <point x="853.3349056603772" y="434.9150943396226" type="line"/>
      <point x="853.3349056603772" y="528.066037735849" type="line"/>
      <point x="528.4858490566039" y="528.066037735849" type="line"/>
    </contour>
    <contour>
      <point x="407.2594339622642" y="173.68867924528303" type="line"/>
      <point x="747.7216981132075" y="173.68867924528303" type="line"/>
      <point x="747.7216981132075" y="266.83962264150944" type="line"/>
      <point x="407.2594339622642" y="266.83962264150944" type="line"/>
    </contour>
    <contour>
      <point x="1122.872641509434" y="434.9150943396226" type="line"/>
      <point x="1442.1084905660377" y="434.9150943396226" type="line"/>
      <point x="1442.1084905660377" y="528.066037735849" type="line"/>
      <point x="1122.872641509434" y="528.066037735849" type="line"/>
    </contour>
    <contour>
      <point x="990.4198113207548" y="173.68867924528303" type="line"/>
      <point x="1336.495283018868" y="173.68867924528303" type="line"/>
      <point x="1336.495283018868" y="266.83962264150944" type="line"/>
      <point x="990.4198113207548" y="266.83962264150944" type="line"/>
    </contour>
    <component base="numbersign" xOffset="11.22641509433962"/>
    <component base="numbersign" xOffset="600.0"/>
    <component base="numbersign" xOffset="1188.7735849056605"/>
  </outline>
</glyph>
<glyph name="numbersign_numbersign_numbersign_numbersign.code" format="2">
  <advance width="2400.0"/>
  <outline>
    <contour>
      <point x="465.05660377358487" y="434.9150943396226" type="line"/>
      <point x="862.877358490566" y="434.9150943396226" type="line"/>
      <point x="862.877358490566" y="528.066037735849" type="line"/>
      <point x="465.05660377358487" y="528.066037735849" type="line"/>
    </contour>
    <contour>
      <point x="399.96226415094344" y="173.68867924528303" type="line"/>
      <point x="751.6509433962265" y="173.68867924528303" type="line"/>
      <point x="751.6509433962265" y="266.83962264150944" type="line"/>
      <point x="399.96226415094344" y="266.83962264150944" type="line"/>
    </contour>
    <contour>
      <point x="1065.0566037735848" y="434.9150943396226" type="line"/>
      <point x="1451.6509433962265" y="434.9150943396226" type="line"/>
      <point x="1451.6509433962265" y="528.066037735849" type="line"/>
      <point x="1065.0566037735848" y="528.066037735849" type="line"/>
    </contour>
    <contour>
      <point x="999.9622641509434" y="173.68867924528303" type="line"/>
      <point x="1340.4245283018865" y="173.68867924528303" type="line"/>
      <point x="1340.4245283018865" y="266.83962264150944" type="line"/>
      <point x="999.9622641509434" y="266.83962264150944" type="line"/>
    </contour>
    <contour>
      <point x="1665.0566037735848" y="434.9150943396226" type="line"/>
      <point x="2051.6509433962265" y="434.9150943396226" type="line"/>
      <point x="2051.6509433962265" y="528.066037735849" type="line"/>
      <point x="1665.0566037735848" y="528.066037735849" type="line"/>
    </contour>
    <contour>
      <point x="1588.7358490566037" y="173.68867924528303" type="line"/>
      <point x="1934.8113207547167" y="173.68867924528303" type="line"/>
      <point x="1934.8113207547167" y="266.83962264150944" type="line"/>
      <point x="1588.7358490566037" y="266.83962264150944" type="line"/>
    </contour>
    <component base="numbersign" xOffset="11.22641509433962"/>
    <component base="numbersign" xOffset="605.6132075471698"/>
    <component base="numbersign" xOffset="1194.3867924528302"/>
    <component base="numbersign" xOffset="1788.7735849056605"/>
  </outline>
</glyph>
<glyph name="ogonekcombo" format="2">
  <anchor x="18.646226415094347" y="50.22641509433963" name="_ogonek"/>
  <outline>
    <contour>
      <point x="-197.63207547169813" y="-121.54245283018867" type="curve" smooth="yes"/>
      <point x="-212.50943396226415" y="-201.61320754716982"/>
      <point x="-169.12264150943395" y="-250.0"/>
      <point x="-92.31603773584905" y="-250.0" type="curve" smooth="yes"/>
      <point x="-40.77358490566037" y="-250.0"/>
      <point x="-4.844339622641515" y="-228.2641509433962"/>
      <point x="5.084905660377354" y="-181.98584905660377" type="curve" smooth="yes"/>
      <point x="9.768867924528298" y="-160.68867924528303"/>
      <point x="7.330188679245277" y="-143.7075471698113"/>
      <point x="0.9622641509433891" y="-129.84905660377356" type="curve"/>
      <point x="-5.037735849056606" y="-129.84905660377356" type="line"/>
      <point x="-18.47641509433962" y="-142.4811320754717"/>
      <point x="-34.108490566037744" y="-148.1132075471698"/>
      <point x="-57.44339622641508" y="-148.1132075471698" type="curve" smooth="yes"/>
      <point x="-94.84905660377358" y="-148.1132075471698"/>
      <point x="-110.04245283018868" y="-123.26886792452828"/>
      <point x="-105.16509433962264" y="-88.12735849056604" type="curve" smooth="yes"/>
      <point x="-99.41037735849055" y="-47.599056603773576"/>
      <point x="-76.21698113207547" y="-9.966981132075475"/>
      <point x="-9.17924528301887" y="29.349056603773583" type="curve" smooth="yes"/>
      <point x="3.1367924528301927" y="36.910377358490564"/>
      <point x="11.207547169811322" y="43.66509433962264"/>
      <point x="17.64622641509434" y="50.22641509433963" type="curve"/>
      <point x="3.665094339622641" y="52.858490566037744"/>
      <point x="-17.316037735849058" y="49.051886792452834"/>
      <point x="-38.490566037735846" y="41.68396226415094" type="curve" smooth="yes"/>
      <point x="-124.21226415094335" y="13.561320754716988"/>
      <point x="-183.63207547169813" y="-47.85849056603773"/>
    </contour>
  </outline>
</glyph>
<glyph name="parenleft.case" format="2">
  <advance width="600.0"/>
  <outline>
    <contour>
      <point x="427.74528301886795" y="732.617924528302" type="curve" smooth="yes"/>
      <point x="310.79716981132077" y="653.4952830188679"/>
      <point x="232.688679245283" y="530.4575471698113"/>
      <point x="192.98584905660377" y="370.24528301886795" type="curve" smooth="yes"/>
      <point x="190.54716981132074" y="360.3679245283019" type="line" smooth="yes"/>
      <point x="153.59905660377353" y="208.17452830188677"/>
      <point x="179.688679245283" y="37.91509433962265"/>
      <point x="260.2688679245283" y="-40.17452830188679" type="curve" smooth="yes"/>
      <point x="282.8113207547169" y="-61.59433962264151"/>
      <point x="300.42452830188677" y="-69.40094339622641"/>
      <point x="326.01886792452825" y="-69.40094339622641" type="curve" smooth="yes"/>
      <point x="355.8066037735849" y="-69.40094339622641"/>
      <point x="372.27830188679246" y="-59.910377358490564"/>
      <point x="392.6981132075472" y="-43.806603773584904" type="curve"/>
      <point x="393.6981132075472" y="-38.68396226415094" type="line"/>
      <point x="289.67924528301893" y="64.50943396226415"/>
      <point x="270.1509433962264" y="198.05188679245282"/>
      <point x="306.73113207547175" y="346.3349056603774" type="curve" smooth="yes"/>
      <point x="309.1698113207548" y="356.2122641509434" type="line" smooth="yes"/>
      <point x="345.31132075471703" y="503.0566037735849"/>
      <point x="430.55660377358487" y="626.7405660377359"/>
      <point x="585.5235849056603" y="728.0566037735849" type="curve"/>
      <point x="587.0849056603773" y="733.1792452830189" type="line"/>
      <point x="569.4716981132075" y="749.7216981132076"/>
      <point x="542.8066037735849" y="758.7735849056604"/>
      <point x="509.2830188679245" y="758.7735849056604" type="curve" smooth="yes"/>
      <point x="479.9339622641509" y="758.7735849056604"/>
      <point x="457.0235849056603" y="752.4056603773586"/>
    </contour>
  </outline>
</glyph>
<glyph name="r.mono" format="2">
  <advance width="600.0"/>
  <anchor x="375.3752204840948" y="544.8584905660377" name="top"/>
  <anchor x="238.872571846734" y="-1.0" name="bottom"/>
  <outline>
    <contour>
      <point x="171.19339622641508" y="91.0801886792453" type="line"/>
      <point x="244.85377358490572" y="83.78301886792454" type="line"/>
      <point x="254.73113207547175" y="200.2735849056604"/>
      <point x="296.85377358490575" y="280.8018867924528"/>
      <point x="318.556603773585" y="358.47169811320754" type="curve" smooth="yes"/>
      <point x="354.31132075471703" y="488.03301886792457"/>
      <point x="333.68396226415103" y="543.8584905660377"/>
      <point x="259.74056603773585" y="543.8584905660377" type="curve" smooth="yes"/>
      <point x="212.84433962264154" y="543.8584905660377"/>
      <point x="173.30188679245285" y="539.8584905660376"/>
      <point x="132.0707547169811" y="533.8584905660377" type="curve"/>
      <point x="117.96698113207545" y="512.0188679245283"/>
      <point x="111.47641509433959" y="496.47641509433964"/>
      <point x="106.10849056603772" y="476.5660377358491" type="curve"/>
      <point x="97.17924528301883" y="442.41037735849056"/>
      <point x="105.3018867924528" y="422.9905660377359"/>
      <point x="126.59905660377356" y="422.9905660377359" type="curve" smooth="yes"/>
      <point x="148.0896226415094" y="422.9905660377359"/>
      <point x="178.4575471698113" y="432.5518867924529"/>
      <point x="239.07547169811315" y="447.04245283018867" type="curve" smooth="yes"/>
      <point x="243.63679245283018" y="442.60377358490564" type="line"/>
      <point x="223.56603773584905" y="342.754716981132"/>
      <point x="179.84433962264148" y="268.2594339622642"/>
      <point x="163.33490566037733" y="175.9198113207547" type="curve" smooth="yes"/>
      <point x="157.21226415094338" y="145.2358490566038"/>
      <point x="164.14150943396226" y="122.62264150943396"/>
      <point x="179.877358490566" y="108.00943396226417" type="curve" smooth="yes"/>
    </contour>
    <contour>
      <point x="295.5754716981133" y="371.7877358490566" type="line"/>
      <point x="260.96226415094344" y="203.66981132075475" type="line"/>
      <point x="354.5424528301888" y="362.88207547169816"/>
      <point x="439.08962264150944" y="427.938679245283"/>
      <point x="511.5471698113209" y="427.938679245283" type="curve" smooth="yes"/>
      <point x="544.2311320754715" y="427.938679245283"/>
      <point x="562.4764150943396" y="421.1320754716981"/>
      <point x="581.4575471698113" y="406.39622641509436" type="curve"/>
      <point x="586.3349056603774" y="406.39622641509436" type="line"/>
      <point x="596.9481132075472" y="425.061320754717"/>
      <point x="605.316037735849" y="443.6037735849057"/>
      <point x="611.8066037735849" y="468.1981132075472" type="curve"/>
      <point x="619.4198113207548" y="502.2122641509434"/>
      <point x="618.5424528301886" y="524.3679245283018"/>
      <point x="606.2452830188679" y="536.6650943396227" type="curve" smooth="yes"/>
      <point x="596.2452830188679" y="546.6650943396227"/>
      <point x="579.9292452830189" y="551.2264150943396"/>
      <point x="552.9811320754717" y="551.2264150943396" type="curve" smooth="yes"/>
      <point x="479.94339622641513" y="551.2264150943396"/>
      <point x="398.50471698113216" y="485.0330188679245"/>
      <point x="325.43396226415103" y="361.91037735849056" type="curve"/>
    </contour>
    <contour>
      <point x="14.61320754716981" y="102.44811320754715" type="line"/>
      <point x="9.929245283018869" y="94.5188679245283"/>
      <point x="6.806603773584904" y="85.58962264150944"/>
      <point x="4.245283018867923" y="76.34433962264151" type="curve" smooth="yes"/>
      <point x="-8.051886792452835" y="29.59433962264151"/>
      <point x="15.226415094339622" y="0.0"/>
      <point x="57.24056603773587" y="0.0" type="curve" smooth="yes"/>
      <point x="429.15566037735846" y="0.0" type="line"/>
      <point x="435.20754716981116" y="7.613207547169814"/>
      <point x="439.01415094339615" y="16.665094339622634"/>
      <point x="440.6981132075472" y="26.52358490566038" type="curve" smooth="yes"/>
      <point x="449.5047169811321" y="70.97641509433961"/>
      <point x="360.25943396226415" y="102.44811320754715"/>
      <point x="252.4858490566037" y="102.44811320754715" type="curve"/>
    </contour>
  </outline>
</glyph>
<glyph name="ringcomb.case" format="2">
  <anchor x="107.87735849056604" y="700.0" name="_ring"/>
  <anchor x="153.68396226415095" y="883.6650943396227" name="top"/>
  <outline>
    <contour>
      <point x="145.50943396226415" y="895.1037735849056" type="curve" smooth="yes"/>
      <point x="50.264150943396224" y="895.1037735849056"/>
      <point x="-9.419811320754702" y="848.5424528301887"/>
      <point x="-28.96226415094338" y="776.7547169811321" type="curve" smooth="yes"/>
      <point x="-30.523584905660364" y="770.754716981132" type="line" smooth="yes"/>
      <point x="-50.50471698113206" y="695.5801886792453"/>
      <point x="0.6698113207547127" y="637.3207547169811"/>
      <point x="100.8254716981132" y="637.3207547169811" type="curve" smooth="yes"/>
      <point x="195.94811320754715" y="637.3207547169811"/>
      <point x="256.561320754717" y="673.6886792452831"/>
      <point x="276.9811320754717" y="751.1792452830189" type="curve" smooth="yes"/>
      <point x="278.54245283018867" y="757.1792452830189" type="line" smooth="yes"/>
      <point x="298.7688679245283" y="830.1415094339623"/>
      <point x="250.22641509433964" y="895.1037735849056"/>
    </contour>
    <contour>
      <point x="142.70283018867926" y="827.0377358490567" type="curve" smooth="yes"/>
      <point x="163.2830188679245" y="827.0377358490567"/>
      <point x="177.72169811320757" y="823.2830188679245"/>
      <point x="189.91509433962264" y="818.5283018867924" type="curve"/>
      <point x="202.54716981132077" y="806.0896226415094"/>
      <point x="205.98584905660377" y="790.0377358490566"/>
      <point x="199.74056603773585" y="765.7216981132076" type="curve" smooth="yes"/>
      <point x="198.17924528301887" y="759.2830188679245" type="line" smooth="yes"/>
      <point x="189.37264150943395" y="722.8962264150944"/>
      <point x="156.10849056603772" y="705.3867924528303"/>
      <point x="106.31603773584905" y="705.3867924528303" type="curve" smooth="yes"/>
      <point x="85.31603773584906" y="705.3867924528303"/>
      <point x="69.17452830188678" y="707.7028301886793"/>
      <point x="56.10377358490566" y="712.5801886792455" type="curve"/>
      <point x="44.471698113207545" y="722.3349056603773"/>
      <point x="41.033018867924525" y="742.2122641509434"/>
      <point x="47.15566037735849" y="763.7735849056604" type="curve" smooth="yes"/>
      <point x="49.15566037735849" y="770.6509433962265" type="line" smooth="yes"/>
      <point x="58.278301886792455" y="800.5283018867924"/>
      <point x="92.10377358490565" y="827.0377358490567"/>
    </contour>
  </outline>
</glyph>
<glyph name="z.italic" format="2">
  <advance width="600.0"/>
  <outline>
    <contour>
      <point x="138.84433962264148" y="533.8584905660377" type="line"/>
      <point x="134.47641509433961" y="525.8066037735849"/>
      <point x="131.79245283018867" y="516.7547169811321"/>
      <point x="129.10849056603774" y="507.0188679245283" type="curve" smooth="yes"/>
      <point x="116.25000000000001" y="457.0754716981132"/>
      <point x="131.4245283018868" y="431.4103773584905"/>
      <point x="169.50943396226415" y="431.4103773584905" type="curve" smooth="yes"/>
      <point x="300.8018867924529" y="431.4103773584905" type="line" smooth="yes"/>
      <point x="351.7122641509434" y="431.4103773584905"/>
      <point x="394.3962264150943" y="433.2877358490566"/>
      <point x="436.8867924528301" y="438.2877358490566" type="curve"/>
      <point x="439.3254716981131" y="432.28773584905656" type="line"/>
      <point x="419.8160377358491" y="407.39150943396226"/>
      <point x="397.9905660377359" y="385.933962264151"/>
      <point x="375.7264150943397" y="363.0377358490566" type="curve" smooth="yes"/>
      <point x="277.58490566037733" y="265.9292452830189"/>
      <point x="153.8632075471698" y="170.1179245283019"/>
      <point x="24.77358490566037" y="93.76415094339623" type="curve"/>
      <point x="22.089622641509425" y="83.58962264150944" type="line" smooth="yes"/>
      <point x="10.915094339622634" y="39.820754716981135"/>
      <point x="22.21226415094339" y="0.0"/>
      <point x="55.8066037735849" y="0.0" type="curve" smooth="yes"/>
      <point x="466.5424528301886" y="0.0" type="line"/>
      <point x="472.91037735849056" y="10.858490566037737"/>
      <point x="478.8396226415094" y="25.52358490566038"/>
      <point x="482.08490566037733" y="37.50471698113208" type="curve" smooth="yes"/>
      <point x="492.5754716981131" y="78.02830188679245"/>
      <point x="477.87264150943395" y="102.44811320754717"/>
      <point x="429.0849056603773" y="102.44811320754717" type="curve"/>
      <point x="308.8820754716981" y="102.44811320754717" type="line" smooth="yes"/>
      <point x="263.5330188679246" y="102.44811320754717"/>
      <point x="219.11320754716982" y="100.88679245283018"/>
      <point x="169.44811320754718" y="96.44811320754717" type="curve"/>
      <point x="168.00943396226415" y="102.3254716981132" type="line"/>
      <point x="198.00943396226413" y="117.1509433962264"/>
      <point x="236.5707547169811" y="138.85377358490564"/>
      <point x="268.5188679245283" y="160.55660377358492" type="curve" smooth="yes"/>
      <point x="430.504716981132" y="267.26415094339626"/>
      <point x="569.3490566037736" y="412.1650943396226"/>
      <point x="578.0330188679244" y="445.33962264150944" type="curve"/>
      <point x="579.5943396226414" y="451.5849056603774" type="line" smooth="yes"/>
      <point x="587.0849056603773" y="482.9858490566038"/>
      <point x="571.0518867924528" y="533.8584905660377"/>
      <point x="535.8443396226414" y="533.8584905660377" type="curve"/>
    </contour>
  </outline>
</glyph>
<glyph name="zerosuperior.dotted" format="2">
  <advance width="600.0"/>
  <outline>
    <contour>
      <point x="407.9292452830188" y="732.3490566037735" type="curve" smooth="yes"/>
      <point x="325.87735849056605" y="732.3490566037735"/>
      <point x="261.0707547169811" y="665.1556603773586"/>
      <point x="235.4575471698113" y="555.2971698113207" type="curve" smooth="yes"/>
      <point x="228.40566037735852" y="527.3349056603773" type="line" smooth="yes"/>
      <point x="205.72169811320754" y="429.0707547169811"/>
      <point x="245.1603773584905" y="366.6509433962264"/>
      <point x="330.75471698113205" y="366.6509433962264" type="curve" smooth="yes"/>
      <point x="408.2971698113207" y="366.6509433962264"/>
      <point x="474.61320754716985" y="416.50943396226415"/>
      <point x="500.29716981132077" y="522.8962264150944" type="curve" smooth="yes"/>
      <point x="507.7877358490566" y="552.0518867924529" type="line" smooth="yes"/>
      <point x="531.9103773584906" y="656.2452830188679"/>
      <point x="499.54245283018867" y="732.3490566037735"/>
    </contour>
    <contour>
      <point x="403.19339622641513" y="667.8962264150942" type="curve" smooth="yes"/>
      <point x="420.9481132075472" y="667.8962264150942"/>
      <point x="434.3867924528302" y="665.0188679245283"/>
      <point x="443.14150943396226" y="658.9481132075472" type="curve" smooth="yes"/>
      <point x="452.14150943396226" y="638.2452830188679"/>
      <point x="453.3349056603774" y="607.6132075471698"/>
      <point x="442.5801886792453" y="565.5943396226415" type="curve" smooth="yes"/>
      <point x="433.84433962264154" y="532.7735849056605" type="line" smooth="yes"/>
      <point x="413.65094339622647" y="455.3679245283019"/>
      <point x="376.12264150943395" y="431.10377358490564"/>
      <point x="335.50943396226415" y="431.10377358490564" type="curve" smooth="yes"/>
      <point x="319.61320754716985" y="431.10377358490564"/>
      <point x="309.22641509433964" y="433.73584905660374"/>
      <point x="299.47169811320754" y="440.99999999999994" type="curve" smooth="yes"/>
      <point x="290.54245283018867" y="457.5094339622641"/>
      <point x="287.54245283018867" y="489.3349056603774"/>
      <point x="295.29716981132077" y="519.7924528301886" type="curve" smooth="yes"/>
      <point x="305.1556603773585" y="557.5424528301887" type="line" smooth="yes"/>
      <point x="324.7877358490566" y="632.8254716981131"/>
      <point x="359.0518867924528" y="667.8962264150942"/>
    </contour>
    <contour>
      <point x="412.56132075471703" y="585.0518867924528" type="line"/>
      <point x="401.3679245283019" y="589.6132075471697"/>
      <point x="390.0518867924528" y="591.6132075471697"/>
      <point x="378.6132075471698" y="591.6132075471697" type="curve" smooth="yes"/>
      <point x="351.4198113207548" y="591.6132075471697"/>
      <point x="339.0518867924529" y="577.4905660377358"/>
      <point x="331.806603773585" y="540.9292452830188" type="curve" smooth="yes"/>
      <point x="327.683962264151" y="519.9292452830189" type="line"/>
      <point x="336.122641509434" y="516.367924528302"/>
      <point x="344.316037735849" y="514.367924528302"/>
      <point x="357.0707547169811" y="514.367924528302" type="curve" smooth="yes"/>
      <point x="381.43867924528297" y="514.367924528302"/>
      <point x="396.6320754716981" y="521.6839622641509"/>
      <point x="404.3160377358491" y="551.8066037735848" type="curve" smooth="yes"/>
    </contour>
  </outline>
</glyph>
